<svg xmlns="http://www.w3.org/2000/svg" viewBox="0 0 600 210"><defs><style>.cls-1{fill:#0c1e3e;}.cls-2{fill:#fff;}.cls-3{fill:#f3f6f6;}.cls-4{fill:#d5edfa;}.cls-5{fill:#8795a2;}.cls-6{fill:none;}</style></defs><title>dcr - hfweb - infographic</title><g id="Layer_2" data-name="Layer 2"><g id="Layer_1-2" data-name="Layer 1"><path class="cls-1" d="M22.5,34.83h5.38v.92h-4.3v2.94H27v.92H23.58v4.59H22.5Z"/><path class="cls-1" d="M30.42,37.33h2.75v6h1.61v.87H30.33v-.87h1.76V38.2H30.42Zm1.68-2.76a.74.74,0,0,1,.54-.22.79.79,0,0,1,.78.78.72.72,0,0,1-.23.54.76.76,0,0,1-.55.23.77.77,0,0,1-.77-.77A.76.76,0,0,1,32.1,34.57Z"/><path class="cls-1" d="M37.82,37.33h1.11l0,1.32a2.27,2.27,0,0,1,1-1.1,3,3,0,0,1,1.47-.38,2.44,2.44,0,0,1,1.84.75l-.5,1c-.11-.15-.21-.27-.3-.37a1.52,1.52,0,0,0-.29-.25,1.36,1.36,0,0,0-.35-.17,1.52,1.52,0,0,0-.46-.06,2,2,0,0,0-.93.23,2.55,2.55,0,0,0-.76.61,3.11,3.11,0,0,0-.52.88,2.78,2.78,0,0,0-.2,1V44.2H37.82Z"/><path class="cls-1" d="M50.31,38.25l-.63.94s-.07,0-.07-.12a.27.27,0,0,0,0-.15,2.71,2.71,0,0,0-.77-.64A2.2,2.2,0,0,0,47.67,38a2.24,2.24,0,0,0-.55.07,1.81,1.81,0,0,0-.47.19.94.94,0,0,0-.32.31.76.76,0,0,0-.12.43.59.59,0,0,0,.09.32,1,1,0,0,0,.29.28,2.68,2.68,0,0,0,.55.27c.24.09.55.19.93.3A4.66,4.66,0,0,1,49.9,41a1.49,1.49,0,0,1,.54,1.16,2,2,0,0,1-.19.85,2,2,0,0,1-.57.71,2.82,2.82,0,0,1-.9.47,3.78,3.78,0,0,1-1.19.17,4.11,4.11,0,0,1-2.89-1.08l.62-1.08a.26.26,0,0,1,.06.15.62.62,0,0,0,.11.24,1.37,1.37,0,0,0,.33.32,4,4,0,0,0,.74.39,1.9,1.9,0,0,0,.51.15,3.67,3.67,0,0,0,.57,0,2.61,2.61,0,0,0,.61-.08,2.12,2.12,0,0,0,.56-.22,1.32,1.32,0,0,0,.4-.35.75.75,0,0,0,.15-.46A.8.8,0,0,0,49,41.7a4.58,4.58,0,0,0-1.33-.56l-.87-.27A4.58,4.58,0,0,1,46,40.5a2.25,2.25,0,0,1-.44-.38,1.81,1.81,0,0,1-.32-.5,1.49,1.49,0,0,1-.12-.61,1.34,1.34,0,0,1,.2-.69,2,2,0,0,1,.55-.59,3,3,0,0,1,.84-.41,3.4,3.4,0,0,1,1.06-.16A3.28,3.28,0,0,1,50.31,38.25Z"/><path class="cls-1" d="M54.15,35.5l1.17-.2a.71.71,0,0,1,0,.24l-.05.17-.18,1.62H57.3v.87H55.05q-.13,1.34-.13,2.52,0,.73,0,1.22a2.29,2.29,0,0,0,.16.79,1,1,0,0,0,.37.45,1.17,1.17,0,0,0,.65.16,2.66,2.66,0,0,0,1.54-.63l.33.85a3.55,3.55,0,0,1-2.13.77,1.85,1.85,0,0,1-1.58-.65,3.38,3.38,0,0,1-.45-2.13q0-.54,0-1.38t.12-2H52.38v-.87H54Z"/><path class="cls-1" d="M67.22,34.84h3a3.84,3.84,0,0,1,1.33.2,2.35,2.35,0,0,1,.9.57,2.38,2.38,0,0,1,.53.85,3.63,3.63,0,0,1,.2,1,3.54,3.54,0,0,1-.2,1,2.27,2.27,0,0,1-.51.82,2.39,2.39,0,0,1-.87.55,3.67,3.67,0,0,1-1.3.2h-2v4.13H67.22Zm1.08,1v3.3h1.88a2,2,0,0,0,1.45-.44,1.78,1.78,0,0,0,.47-1.18,2.47,2.47,0,0,0-.14-.65,1.45,1.45,0,0,0-.34-.53A1.64,1.64,0,0,0,71,36a2.37,2.37,0,0,0-.85-.13Z"/><path class="cls-1" d="M74.88,44.19v-10h1.23s0,0,0,0,0,0,0,0a.24.24,0,0,1-.07.13.51.51,0,0,0-.1.2v4a3.2,3.2,0,0,1,1-1,2.34,2.34,0,0,1,1.24-.37,2.23,2.23,0,0,1,.85.16,1.72,1.72,0,0,1,.67.5,2.36,2.36,0,0,1,.44.88A5,5,0,0,1,80.33,40v4.16H79.25V40.06a2.39,2.39,0,0,0-.37-1.52,1.13,1.13,0,0,0-.89-.44,1.73,1.73,0,0,0-.69.15,2.76,2.76,0,0,0-.67.42,1.78,1.78,0,0,0-.5.66,2.2,2.2,0,0,0-.17.9v3.95Z"/><path class="cls-1" d="M82.7,38.14a3.22,3.22,0,0,1,2.45-1,2.92,2.92,0,0,1,2,.64,2.7,2.7,0,0,1,.73,2.12v4.25h-1v-.75a3.74,3.74,0,0,1-2.46.91,2.68,2.68,0,0,1-1-.16,2.36,2.36,0,0,1-.73-.44,1.87,1.87,0,0,1-.46-.62,1.63,1.63,0,0,1-.16-.69A1.87,1.87,0,0,1,83,40.81a4.91,4.91,0,0,1,2.57-.66h1.29V39.9a1.94,1.94,0,0,0-.43-1.43,1.86,1.86,0,0,0-1.33-.41,2.43,2.43,0,0,0-1.85.78ZM86.87,41h-1a6.68,6.68,0,0,0-1.35.11,2.49,2.49,0,0,0-.83.31,1.09,1.09,0,0,0-.41.44,1.29,1.29,0,0,0-.11.53,1,1,0,0,0,.42.82,1.57,1.57,0,0,0,1,.35,2.19,2.19,0,0,0,.81-.14A2.73,2.73,0,0,0,86,43a2.15,2.15,0,0,0,.43-.42,1.92,1.92,0,0,0,.24-.38,1.83,1.83,0,0,0,.15-.81Z"/><path class="cls-1" d="M95.31,38.25l-.63.94s-.07,0-.07-.12a.27.27,0,0,0,0-.15,2.71,2.71,0,0,0-.77-.64A2.2,2.2,0,0,0,92.67,38a2.24,2.24,0,0,0-.55.07,1.81,1.81,0,0,0-.47.19.94.94,0,0,0-.32.31.76.76,0,0,0-.12.43.59.59,0,0,0,.09.32,1,1,0,0,0,.29.28,2.68,2.68,0,0,0,.55.27c.24.09.55.19.93.3A4.66,4.66,0,0,1,94.9,41a1.49,1.49,0,0,1,.54,1.16,2,2,0,0,1-.19.85,2,2,0,0,1-.57.71,2.82,2.82,0,0,1-.9.47,3.78,3.78,0,0,1-1.19.17,4.11,4.11,0,0,1-2.89-1.08l.62-1.08a.26.26,0,0,1,.06.15.62.62,0,0,0,.11.24,1.37,1.37,0,0,0,.33.32,4,4,0,0,0,.74.39,1.9,1.9,0,0,0,.51.15,3.67,3.67,0,0,0,.57,0,2.61,2.61,0,0,0,.61-.08,2.12,2.12,0,0,0,.56-.22,1.32,1.32,0,0,0,.4-.35.75.75,0,0,0,.15-.46A.8.8,0,0,0,94,41.7a4.58,4.58,0,0,0-1.33-.56l-.87-.27A4.58,4.58,0,0,1,91,40.5a2.25,2.25,0,0,1-.44-.38,1.81,1.81,0,0,1-.32-.5,1.49,1.49,0,0,1-.12-.61,1.34,1.34,0,0,1,.2-.69,2,2,0,0,1,.55-.59,3,3,0,0,1,.84-.41,3.4,3.4,0,0,1,1.06-.16A3.28,3.28,0,0,1,95.31,38.25Z"/><path class="cls-1" d="M100.22,37.17a2.94,2.94,0,0,1,1.05.19,2.44,2.44,0,0,1,.89.59,3,3,0,0,1,.62,1,4.13,4.13,0,0,1,.23,1.46c0,.08,0,.16,0,.25s0,.17,0,.25H98.1a3.35,3.35,0,0,0,.25,1.21,2.32,2.32,0,0,0,.55.79,2,2,0,0,0,.73.43,2.68,2.68,0,0,0,.81.13,2.31,2.31,0,0,0,1.77-.76l.6.58a3,3,0,0,1-2.4,1.05A3.9,3.9,0,0,1,99,44.11,2.81,2.81,0,0,1,98,43.42a3.07,3.07,0,0,1-.68-1.12,5,5,0,0,1,0-3.07A3.32,3.32,0,0,1,98,38.11a2.87,2.87,0,0,1,1-.7A3.13,3.13,0,0,1,100.22,37.17ZM98.15,40h3.76a.68.68,0,0,1,0-.11.76.76,0,0,0,0-.12,1.75,1.75,0,0,0-.14-.7,1.83,1.83,0,0,0-.95-1,1.64,1.64,0,0,0-.7-.15,1.9,1.9,0,0,0-1.28.5A2.44,2.44,0,0,0,98.15,40Z"/><path class="cls-1" d="M108.42,43.89a4.5,4.5,0,0,1-1.6,2.82l-.51-.45a4.11,4.11,0,0,0,.7-.84,1.54,1.54,0,0,0,.28-.74.4.4,0,0,0-.12-.28l-.26-.25a1.71,1.71,0,0,1-.26-.28.56.56,0,0,1-.12-.35.87.87,0,0,1,.25-.63.85.85,0,0,1,.64-.25.94.94,0,0,1,.71.34A1.28,1.28,0,0,1,108.42,43.89Z"/><path class="cls-1" d="M119.58,34.84h1.19s0,0,0,0a.39.39,0,0,1-.07.17.82.82,0,0,0-.1.28V41a3.82,3.82,0,0,0,.15,1.21,1.9,1.9,0,0,0,.42.71,1.7,1.7,0,0,0,.64.41,2.86,2.86,0,0,0,.79.17,3.32,3.32,0,0,0,.79-.15,1.54,1.54,0,0,0,.64-.41,2.06,2.06,0,0,0,.44-.73,3.83,3.83,0,0,0,.16-1.25v-6.1h1v6.08a5.1,5.1,0,0,1-.2,1.54,2.57,2.57,0,0,1-.62,1,2.74,2.74,0,0,1-1,.63,3.77,3.77,0,0,1-2.47,0,2.64,2.64,0,0,1-1-.62,2.78,2.78,0,0,1-.61-1,4.6,4.6,0,0,1-.22-1.58Z"/><path class="cls-1" d="M127.23,37.33h1.06v1a2.52,2.52,0,0,1,.93-.88,2.38,2.38,0,0,1,1.17-.32,2.81,2.81,0,0,1,1.09.22,2.61,2.61,0,0,1,.92.65,3.16,3.16,0,0,1,.63,1.09,5.26,5.26,0,0,1,0,3.15,3.47,3.47,0,0,1-.66,1.15,2.71,2.71,0,0,1-.93.69,2.59,2.59,0,0,1-1.06.23,2.5,2.5,0,0,1-1.18-.29,2.41,2.41,0,0,1-.89-.79v3.4h-1.08Zm1.06,4a2.26,2.26,0,0,0,.51,1.58,1.64,1.64,0,0,0,1.2.48,2.48,2.48,0,0,0,.76-.12,1.86,1.86,0,0,0,.7-.41,2,2,0,0,0,.51-.77,3.25,3.25,0,0,0,.19-1.19,3.29,3.29,0,0,0-.55-2,1.91,1.91,0,0,0-1.55-.75,2,2,0,0,0-.62.1,1.4,1.4,0,0,0-.57.36,1.87,1.87,0,0,0-.41.68,3,3,0,0,0-.16,1.05Z"/><path class="cls-1" d="M138.92,37.77a2.54,2.54,0,0,1,1.71-.62h.2l.13.9-.2,0h-.2a2.26,2.26,0,0,0-1.19.32,2.06,2.06,0,0,1,.35,1.16,2.17,2.17,0,0,1-.2.91,2.4,2.4,0,0,1-.53.75,2.52,2.52,0,0,1-.79.51,2.46,2.46,0,0,1-1,.19,2.52,2.52,0,0,1-.87-.17,1.26,1.26,0,0,0-.48.78.44.44,0,0,0,.29.4,1.85,1.85,0,0,0,.8.14l.58,0,.55,0a4.69,4.69,0,0,1,1.16.13,2.17,2.17,0,0,1,.79.36,1.5,1.5,0,0,1,.45.55,1.56,1.56,0,0,1,.15.68,1.73,1.73,0,0,1-.2.79,2,2,0,0,1-.59.67,3,3,0,0,1-1,.46,5,5,0,0,1-1.39.17,6.75,6.75,0,0,1-1.42-.13,3,3,0,0,1-1-.35,1.73,1.73,0,0,1-.55-.52,1.13,1.13,0,0,1-.19-.62q0-.81,1.13-1.51a1,1,0,0,1-.55-.94,1.76,1.76,0,0,1,.78-1.29,2.22,2.22,0,0,1-.75-.81,2.16,2.16,0,0,1-.27-1,2.19,2.19,0,0,1,.21-1,2.49,2.49,0,0,1,.56-.77,2.61,2.61,0,0,1,.81-.52,2.45,2.45,0,0,1,.94-.19A2.26,2.26,0,0,1,138.92,37.77Zm-2.67,6.06q-.86.48-.86,1a.75.75,0,0,0,.17.5,1.26,1.26,0,0,0,.46.33,2.69,2.69,0,0,0,.69.19,5.41,5.41,0,0,0,.83.06,3.11,3.11,0,0,0,1.52-.33,1,1,0,0,0,.6-.88.82.82,0,0,0-.34-.63,1.66,1.66,0,0,0-1-.22h-.3l-1,0Zm-.09-5.4a1.4,1.4,0,0,0-.33.49,1.53,1.53,0,0,0-.11.57,1.42,1.42,0,0,0,.12.57,1.52,1.52,0,0,0,.32.48,1.54,1.54,0,0,0,.48.32,1.44,1.44,0,0,0,.58.12,1.42,1.42,0,0,0,.58-.12,1.59,1.59,0,0,0,.48-.33,1.56,1.56,0,0,0,.33-.48,1.37,1.37,0,0,0,.12-.57,1.42,1.42,0,0,0-.12-.57,1.55,1.55,0,0,0-.82-.81,1.48,1.48,0,0,0-1.64.33Z"/><path class="cls-1" d="M142.82,37.33h1.11l0,1.32a2.27,2.27,0,0,1,1-1.1,3,3,0,0,1,1.47-.38,2.44,2.44,0,0,1,1.84.75l-.5,1c-.11-.15-.21-.27-.3-.37a1.52,1.52,0,0,0-.29-.25,1.36,1.36,0,0,0-.35-.17,1.52,1.52,0,0,0-.46-.06,2,2,0,0,0-.93.23,2.55,2.55,0,0,0-.76.61,3.11,3.11,0,0,0-.52.88,2.78,2.78,0,0,0-.2,1V44.2h-1.08Z"/><path class="cls-1" d="M150.2,38.14a3.22,3.22,0,0,1,2.45-1,2.92,2.92,0,0,1,2,.64,2.7,2.7,0,0,1,.73,2.12v4.25h-1v-.75a3.74,3.74,0,0,1-2.46.91,2.68,2.68,0,0,1-1-.16,2.36,2.36,0,0,1-.73-.44,1.87,1.87,0,0,1-.46-.62,1.63,1.63,0,0,1-.16-.69,1.87,1.87,0,0,1,.89-1.63,4.91,4.91,0,0,1,2.57-.66h1.29V39.9a1.94,1.94,0,0,0-.43-1.43,1.86,1.86,0,0,0-1.33-.41,2.43,2.43,0,0,0-1.85.78ZM154.37,41h-1a6.68,6.68,0,0,0-1.35.11,2.49,2.49,0,0,0-.83.31,1.09,1.09,0,0,0-.41.44,1.29,1.29,0,0,0-.11.53,1,1,0,0,0,.42.82,1.57,1.57,0,0,0,1,.35,2.19,2.19,0,0,0,.81-.14,2.73,2.73,0,0,0,.63-.35,2.15,2.15,0,0,0,.43-.42,1.92,1.92,0,0,0,.24-.38,1.83,1.83,0,0,0,.15-.81Z"/><path class="cls-1" d="M161.88,38.34V34.21h1.17a.37.37,0,0,1-.08.2.41.41,0,0,0-.07.22l0,8.92a2.35,2.35,0,0,0,.07.63H161.9a1.66,1.66,0,0,1-.06-.51v-.59a2.5,2.5,0,0,1-.9.91,2.23,2.23,0,0,1-1.15.34,2.58,2.58,0,0,1-1.07-.23,2.48,2.48,0,0,1-.88-.67,3.34,3.34,0,0,1-.61-1.13,5.16,5.16,0,0,1-.22-1.61,4.53,4.53,0,0,1,.25-1.61,3.19,3.19,0,0,1,.67-1.1,2.61,2.61,0,0,1,.92-.63,2.76,2.76,0,0,1,1-.2,2.29,2.29,0,0,1,1.23.32A2,2,0,0,1,161.88,38.34Zm-3.16.2a2.61,2.61,0,0,0-.64,2,3.92,3.92,0,0,0,.49,2.08,1.59,1.59,0,0,0,1.44.79,1.49,1.49,0,0,0,.47-.08,1.62,1.62,0,0,0,.47-.25,2.1,2.1,0,0,0,.4-.39,1.58,1.58,0,0,0,.27-.51,5.13,5.13,0,0,0,.16-1.44,8.6,8.6,0,0,0,0-1,3,3,0,0,0-.14-.65,1.41,1.41,0,0,0-.24-.44,1.52,1.52,0,0,0-.37-.31,2.61,2.61,0,0,0-.5-.25,1.29,1.29,0,0,0-.44-.08,1.78,1.78,0,0,0-1.33.51Z"/><path class="cls-1" d="M165.42,37.33h2.75v6h1.61v.87h-4.44v-.87h1.76V38.2h-1.67Zm1.68-2.76a.74.74,0,0,1,.54-.22.79.79,0,0,1,.78.78.72.72,0,0,1-.23.54.76.76,0,0,1-.55.23.77.77,0,0,1-.77-.77A.76.76,0,0,1,167.1,34.57Z"/><path class="cls-1" d="M172.35,44.19V37.33h1.08v1.21a3.05,3.05,0,0,1,1-1,2.35,2.35,0,0,1,1.25-.37,2.26,2.26,0,0,1,.85.16,1.71,1.71,0,0,1,.68.5,2.43,2.43,0,0,1,.45.88,4.75,4.75,0,0,1,.16,1.32v4.16h-1.08V40.06a2.38,2.38,0,0,0-.37-1.52,1.14,1.14,0,0,0-.9-.44,1.86,1.86,0,0,0-.71.15,2.15,2.15,0,0,0-.65.43,2.24,2.24,0,0,0-.48.67,2,2,0,0,0-.19.88v3.95Z"/><path class="cls-1" d="M183.92,37.77a2.54,2.54,0,0,1,1.71-.62h.2l.13.9-.2,0h-.2a2.26,2.26,0,0,0-1.19.32,2.06,2.06,0,0,1,.35,1.16,2.17,2.17,0,0,1-.2.91,2.4,2.4,0,0,1-.53.75,2.52,2.52,0,0,1-.79.51,2.46,2.46,0,0,1-1,.19,2.52,2.52,0,0,1-.87-.17,1.26,1.26,0,0,0-.48.78.44.44,0,0,0,.29.4,1.85,1.85,0,0,0,.8.14l.58,0,.55,0a4.69,4.69,0,0,1,1.16.13,2.17,2.17,0,0,1,.79.36,1.5,1.5,0,0,1,.45.55,1.56,1.56,0,0,1,.15.68,1.73,1.73,0,0,1-.2.79,2,2,0,0,1-.59.67,3,3,0,0,1-1,.46,5,5,0,0,1-1.39.17,6.75,6.75,0,0,1-1.42-.13,3,3,0,0,1-1-.35,1.73,1.73,0,0,1-.55-.52,1.13,1.13,0,0,1-.19-.62q0-.81,1.13-1.51a1,1,0,0,1-.55-.94,1.76,1.76,0,0,1,.78-1.29,2.22,2.22,0,0,1-.75-.81,2.16,2.16,0,0,1-.27-1,2.19,2.19,0,0,1,.21-1,2.49,2.49,0,0,1,.56-.77,2.61,2.61,0,0,1,.81-.52,2.45,2.45,0,0,1,.94-.19A2.26,2.26,0,0,1,183.92,37.77Zm-2.67,6.06q-.86.48-.86,1a.75.75,0,0,0,.17.5,1.26,1.26,0,0,0,.46.33,2.69,2.69,0,0,0,.69.19,5.41,5.41,0,0,0,.83.06,3.11,3.11,0,0,0,1.52-.33,1,1,0,0,0,.6-.88.82.82,0,0,0-.34-.63,1.66,1.66,0,0,0-1-.22h-.3l-1,0Zm-.09-5.4a1.4,1.4,0,0,0-.33.49,1.53,1.53,0,0,0-.11.57,1.42,1.42,0,0,0,.12.57,1.52,1.52,0,0,0,.32.48,1.54,1.54,0,0,0,.48.32,1.44,1.44,0,0,0,.58.12,1.42,1.42,0,0,0,.58-.12,1.59,1.59,0,0,0,.48-.33,1.56,1.56,0,0,0,.33-.48,1.37,1.37,0,0,0,.12-.57,1.42,1.42,0,0,0-.12-.57,1.55,1.55,0,0,0-.82-.81,1.48,1.48,0,0,0-1.64.33Z"/><path class="cls-2" d="M361.12,78,364,69.75h.1L367.2,78h-.94l-.9-2.37h-2.57L362,78Zm4-3.07L364,71.83l-1,3.09Z"/><path class="cls-2" d="M371.82,72.43a2.21,2.21,0,0,1,1.48-.53h.17l.12.78-.18,0h-.17a2,2,0,0,0-1,.27,1.79,1.79,0,0,1,.3,1,1.87,1.87,0,0,1-.17.79,2.1,2.1,0,0,1-.46.65,2.21,2.21,0,0,1-.68.44,2.14,2.14,0,0,1-.83.16,2.2,2.2,0,0,1-.75-.14,1.09,1.09,0,0,0-.42.68.38.38,0,0,0,.25.34,1.62,1.62,0,0,0,.7.12l.5,0,.47,0a4,4,0,0,1,1,.11,1.88,1.88,0,0,1,.68.31,1.31,1.31,0,0,1,.39.47,1.35,1.35,0,0,1,.13.58,1.49,1.49,0,0,1-.17.68,1.71,1.71,0,0,1-.51.58,2.67,2.67,0,0,1-.85.4,4.37,4.37,0,0,1-1.2.15,6,6,0,0,1-1.23-.11,2.61,2.61,0,0,1-.83-.31,1.48,1.48,0,0,1-.47-.45,1,1,0,0,1-.16-.54q0-.7,1-1.31a.85.85,0,0,1-.48-.82,1.52,1.52,0,0,1,.68-1.12,2,2,0,0,1-.65-.7,1.88,1.88,0,0,1-.23-.91,1.9,1.9,0,0,1,.18-.83,2.2,2.2,0,0,1,.49-.67,2.29,2.29,0,0,1,.7-.45,2.12,2.12,0,0,1,.81-.16A2,2,0,0,1,371.82,72.43Zm-2.31,5.25q-.74.42-.74.91a.64.64,0,0,0,.15.44,1.07,1.07,0,0,0,.4.29,2.43,2.43,0,0,0,.6.16,4.89,4.89,0,0,0,.72.05,2.7,2.7,0,0,0,1.31-.29.86.86,0,0,0,.52-.77.71.71,0,0,0-.29-.55,1.43,1.43,0,0,0-.84-.19h-.26l-.88,0ZM369.43,73a1.24,1.24,0,0,0-.29.43,1.34,1.34,0,0,0-.09.49,1.23,1.23,0,0,0,.1.5,1.31,1.31,0,0,0,.28.41,1.32,1.32,0,0,0,.42.28,1.25,1.25,0,0,0,.5.1,1.24,1.24,0,0,0,.51-.1,1.41,1.41,0,0,0,.42-.28,1.39,1.39,0,0,0,.29-.41,1.21,1.21,0,0,0,.1-.49,1.26,1.26,0,0,0-.1-.5,1.34,1.34,0,0,0-.71-.7,1.25,1.25,0,0,0-.5-.1A1.27,1.27,0,0,0,369.43,73Z"/><path class="cls-2" d="M377.28,71.91a2.54,2.54,0,0,1,.91.17,2.11,2.11,0,0,1,.77.51,2.55,2.55,0,0,1,.53.88,3.58,3.58,0,0,1,.2,1.26c0,.07,0,.14,0,.21s0,.15,0,.21h-4.22a2.86,2.86,0,0,0,.21,1,2,2,0,0,0,.47.68,1.7,1.7,0,0,0,.64.37,2.33,2.33,0,0,0,.7.11,2,2,0,0,0,1.53-.66l.52.51a2.56,2.56,0,0,1-2.08.91,3.39,3.39,0,0,1-1.19-.2,2.45,2.45,0,0,1-.92-.59,2.67,2.67,0,0,1-.58-1,4.28,4.28,0,0,1,0-2.66,2.85,2.85,0,0,1,.58-1,2.5,2.5,0,0,1,.86-.6A2.72,2.72,0,0,1,377.28,71.91Zm-1.79,2.5h3.26a.61.61,0,0,1,0-.1.85.85,0,0,0,0-.11,1.53,1.53,0,0,0-.12-.61,1.61,1.61,0,0,0-.33-.5,1.64,1.64,0,0,0-.49-.34,1.44,1.44,0,0,0-.6-.13,1.65,1.65,0,0,0-1.1.43A2.11,2.11,0,0,0,375.49,74.41Z"/><path class="cls-2" d="M381.3,78V72.05h.94v1.05a2.64,2.64,0,0,1,.87-.87,2,2,0,0,1,1.08-.33,1.93,1.93,0,0,1,.73.14,1.47,1.47,0,0,1,.59.43,2.14,2.14,0,0,1,.39.77,4.1,4.1,0,0,1,.14,1.14V78h-.94V74.42a2.06,2.06,0,0,0-.32-1.31,1,1,0,0,0-.78-.38,1.59,1.59,0,0,0-.61.13,1.85,1.85,0,0,0-.57.37,2,2,0,0,0-.42.58,1.74,1.74,0,0,0-.16.77V78Z"/><path class="cls-2" d="M391.73,72.92V69.35h1a.32.32,0,0,1-.07.18.34.34,0,0,0-.07.19v7.74a2,2,0,0,0,.07.55h-.95a1.42,1.42,0,0,1-.05-.44V77a2.15,2.15,0,0,1-.78.79,1.93,1.93,0,0,1-1,.29,2.23,2.23,0,0,1-.93-.2,2.15,2.15,0,0,1-.76-.58,2.89,2.89,0,0,1-.53-1,4.48,4.48,0,0,1-.19-1.4,3.92,3.92,0,0,1,.22-1.4,2.77,2.77,0,0,1,.58-.95,2.28,2.28,0,0,1,.8-.55,2.4,2.4,0,0,1,.89-.18,2,2,0,0,1,1.07.28A1.74,1.74,0,0,1,391.73,72.92Zm-2.74.17a2.26,2.26,0,0,0-.55,1.72,3.4,3.4,0,0,0,.42,1.8,1.38,1.38,0,0,0,1.25.68,1.32,1.32,0,0,0,.41-.07,1.45,1.45,0,0,0,.41-.21,1.86,1.86,0,0,0,.35-.34,1.38,1.38,0,0,0,.23-.44,4.5,4.5,0,0,0,.14-1.25,7.45,7.45,0,0,0,0-.83,2.57,2.57,0,0,0-.12-.57,1.2,1.2,0,0,0-.21-.38,1.35,1.35,0,0,0-.32-.27,2.31,2.31,0,0,0-.43-.21,1.12,1.12,0,0,0-.38-.07,1.53,1.53,0,0,0-1.16.44Z"/><path class="cls-2" d="M394.6,72.75a2.79,2.79,0,0,1,2.12-.83,2.52,2.52,0,0,1,1.72.55,2.34,2.34,0,0,1,.63,1.84V78h-.88v-.65a3.24,3.24,0,0,1-2.13.79,2.31,2.31,0,0,1-.84-.14,2,2,0,0,1-.63-.38,1.61,1.61,0,0,1-.4-.53,1.43,1.43,0,0,1-.14-.6,1.62,1.62,0,0,1,.77-1.42,4.27,4.27,0,0,1,2.23-.57h1.12v-.22A1.68,1.68,0,0,0,397.8,73a1.62,1.62,0,0,0-1.15-.35,2.11,2.11,0,0,0-1.6.68Zm3.61,2.46h-.88a5.72,5.72,0,0,0-1.17.1,2.14,2.14,0,0,0-.71.27.93.93,0,0,0-.36.38,1.1,1.1,0,0,0-.1.46.9.9,0,0,0,.36.71,1.37,1.37,0,0,0,.9.3,1.9,1.9,0,0,0,.7-.12,2.36,2.36,0,0,0,.55-.3,1.89,1.89,0,0,0,.38-.36,1.83,1.83,0,0,0,.21-.33,1.58,1.58,0,0,0,.13-.7Z"/><path class="cls-2" d="M406.62,78l2.86-8.24h.1L412.7,78h-.94l-.9-2.37h-2.57L407.51,78Zm4-3.07-1.14-3.09-1,3.09Z"/><path class="cls-1" d="M341.15,36l-.66.9a.13.13,0,0,1-.08-.13.31.31,0,0,0,0-.14,2.09,2.09,0,0,0-.77-.67,2.59,2.59,0,0,0-1.21-.25,1.67,1.67,0,0,0-1.15.4,1.24,1.24,0,0,0-.46,1,1.32,1.32,0,0,0,.11.57,1.6,1.6,0,0,0,.34.47,3,3,0,0,0,.68.46c.3.15.69.33,1.17.52a8,8,0,0,1,1.14.56,3.07,3.07,0,0,1,.72.59,2,2,0,0,1,.38.67,2.61,2.61,0,0,1,.11.79,2.78,2.78,0,0,1-.18,1,2.37,2.37,0,0,1-.56.87,2.91,2.91,0,0,1-1,.62,3.71,3.71,0,0,1-1.41.24,3.79,3.79,0,0,1-2.92-1.2l.61-1.08a.16.16,0,0,1,.08.15.27.27,0,0,0,0,.17,2.71,2.71,0,0,0,.93.73,3.12,3.12,0,0,0,1.41.29,2,2,0,0,0,1.38-.52,1.72,1.72,0,0,0,.4-.56,1.59,1.59,0,0,0,.15-.68,1.32,1.32,0,0,0-.1-.52,1.25,1.25,0,0,0-.32-.43,2.79,2.79,0,0,0-.64-.41q-.41-.2-1.09-.47a8.08,8.08,0,0,1-1.22-.58,4,4,0,0,1-.79-.59,1.78,1.78,0,0,1-.43-.64,2.25,2.25,0,0,1,.09-1.71,2.49,2.49,0,0,1,.6-.79,2.76,2.76,0,0,1,.91-.52,3.33,3.33,0,0,1,1.13-.19,3.43,3.43,0,0,1,1.44.31A3.34,3.34,0,0,1,341.15,36Z"/><path class="cls-1" d="M346,37.17a2.94,2.94,0,0,1,1,.19,2.44,2.44,0,0,1,.89.59,2.93,2.93,0,0,1,.62,1,4.11,4.11,0,0,1,.23,1.46c0,.08,0,.16,0,.25s0,.17,0,.25h-4.87a3.31,3.31,0,0,0,.25,1.21,2.32,2.32,0,0,0,.55.79,2,2,0,0,0,.73.43,2.69,2.69,0,0,0,.81.13A2.3,2.3,0,0,0,348,42.7l.6.58a3,3,0,0,1-2.4,1.05,3.89,3.89,0,0,1-1.37-.23,2.8,2.8,0,0,1-1.06-.68,3.07,3.07,0,0,1-.68-1.12,5,5,0,0,1,0-3.07,3.31,3.31,0,0,1,.67-1.13,2.87,2.87,0,0,1,1-.7A3.13,3.13,0,0,1,346,37.17ZM343.94,40h3.76a.68.68,0,0,1,0-.11.91.91,0,0,0,0-.12,1.75,1.75,0,0,0-.14-.7,1.83,1.83,0,0,0-.94-1,1.64,1.64,0,0,0-.7-.15,1.89,1.89,0,0,0-1.27.5A2.44,2.44,0,0,0,343.94,40Z"/><path class="cls-1" d="M356.48,38.47l-.77.88s-.07-.06-.07-.1a.41.41,0,0,0,0-.14.75.75,0,0,0-.11-.22,2,2,0,0,0-.36-.36,2.16,2.16,0,0,0-1.41-.42,2,2,0,0,0-.84.18,2.1,2.1,0,0,0-.7.52,2.54,2.54,0,0,0-.48.81,2.91,2.91,0,0,0-.18,1.05,3.09,3.09,0,0,0,.18,1.08,2.65,2.65,0,0,0,.5.85,2.24,2.24,0,0,0,1.72.76,2.36,2.36,0,0,0,1.8-.82l.63.73a3.31,3.31,0,0,1-2.5,1.08,3.38,3.38,0,0,1-1.36-.27,3.26,3.26,0,0,1-1.08-.75,3.42,3.42,0,0,1-.71-1.13,4.13,4.13,0,0,1,0-2.86,3.33,3.33,0,0,1,.71-1.13,3.29,3.29,0,0,1,1.09-.74,3.53,3.53,0,0,1,1.39-.27,3.22,3.22,0,0,1,1.48.34A2.91,2.91,0,0,1,356.48,38.47Z"/><path class="cls-1" d="M360.93,37.18a2.93,2.93,0,0,1,1.19.25,2.86,2.86,0,0,1,1,.71,3.48,3.48,0,0,1,.67,1.13,4.27,4.27,0,0,1,.25,1.49,4.37,4.37,0,0,1-.24,1.5,3.47,3.47,0,0,1-.66,1.13,2.79,2.79,0,0,1-1,.72,3,3,0,0,1-1.21.25,2.89,2.89,0,0,1-1.24-.27,3.22,3.22,0,0,1-1-.74,3.53,3.53,0,0,1-.69-1.13,4.09,4.09,0,0,1,0-2.87,3.53,3.53,0,0,1,.71-1.15,3.4,3.4,0,0,1,1-.75A2.81,2.81,0,0,1,360.93,37.18Zm2,3.62a3.52,3.52,0,0,0-.17-1.15,2.69,2.69,0,0,0-.46-.85,2,2,0,0,0-.65-.53,1.75,1.75,0,0,0-1.54,0,1.87,1.87,0,0,0-.64.53,2.66,2.66,0,0,0-.44.83,3.74,3.74,0,0,0,0,2.2,2.86,2.86,0,0,0,.44.86,2,2,0,0,0,.65.55,1.7,1.7,0,0,0,.79.2,1.81,1.81,0,0,0,1.43-.68,2.47,2.47,0,0,0,.43-.83A3.69,3.69,0,0,0,362.94,40.8Z"/><path class="cls-1" d="M365.64,44.19V37.33h1.08v1.21a3.05,3.05,0,0,1,1-1,2.36,2.36,0,0,1,1.25-.37,2.26,2.26,0,0,1,.85.16,1.71,1.71,0,0,1,.68.5,2.43,2.43,0,0,1,.45.88A4.75,4.75,0,0,1,371.1,40v4.16H370V40.06a2.38,2.38,0,0,0-.37-1.52,1.14,1.14,0,0,0-.9-.44,1.85,1.85,0,0,0-.71.15,2.15,2.15,0,0,0-.66.43,2.27,2.27,0,0,0-.48.67,2,2,0,0,0-.19.88v3.95Z"/><path class="cls-1" d="M377.67,38.34V34.21h1.17a.37.37,0,0,1-.08.2.4.4,0,0,0-.08.22l0,8.92a2.34,2.34,0,0,0,.08.63h-1.09a1.66,1.66,0,0,1-.06-.51v-.59a2.49,2.49,0,0,1-.9.91,2.24,2.24,0,0,1-1.15.34,2.58,2.58,0,0,1-1.07-.23,2.48,2.48,0,0,1-.88-.67,3.36,3.36,0,0,1-.61-1.13,5.19,5.19,0,0,1-.22-1.61,4.55,4.55,0,0,1,.25-1.61,3.2,3.2,0,0,1,.67-1.1,2.62,2.62,0,0,1,.92-.63,2.77,2.77,0,0,1,1-.2,2.29,2.29,0,0,1,1.23.32A2,2,0,0,1,377.67,38.34Zm-3.16.2a2.61,2.61,0,0,0-.64,2,3.92,3.92,0,0,0,.49,2.08,1.59,1.59,0,0,0,1.44.79,1.49,1.49,0,0,0,.47-.08,1.61,1.61,0,0,0,.47-.25,2.1,2.1,0,0,0,.4-.39,1.58,1.58,0,0,0,.27-.51,5.18,5.18,0,0,0,.16-1.44,8.37,8.37,0,0,0,0-1,3,3,0,0,0-.14-.65,1.38,1.38,0,0,0-.24-.44,1.5,1.5,0,0,0-.37-.31,2.58,2.58,0,0,0-.5-.25,1.28,1.28,0,0,0-.44-.08,1.78,1.78,0,0,0-1.33.51Z"/><path class="cls-1" d="M388,34.84h3a3.85,3.85,0,0,1,1.33.2,2.31,2.31,0,0,1,1.42,1.42,3.6,3.6,0,0,1,.2,1,3.51,3.51,0,0,1-.2,1,2.27,2.27,0,0,1-.51.82,2.39,2.39,0,0,1-.87.55,3.67,3.67,0,0,1-1.3.2h-2v4.13H388Zm1.08,1v3.3H391a2,2,0,0,0,1.45-.44,1.78,1.78,0,0,0,.47-1.18,2.5,2.5,0,0,0-.14-.65,1.43,1.43,0,0,0-.34-.53,1.63,1.63,0,0,0-.58-.36,2.37,2.37,0,0,0-.85-.13Z"/><path class="cls-1" d="M395.67,44.19v-10h1.23s0,0,0,0v0a.24.24,0,0,1-.07.13.53.53,0,0,0-.1.2v4a3.19,3.19,0,0,1,1-1,2.34,2.34,0,0,1,1.24-.37,2.23,2.23,0,0,1,.85.16,1.72,1.72,0,0,1,.67.5,2.36,2.36,0,0,1,.44.88,5,5,0,0,1,.15,1.32v4.16H400V40.06a2.39,2.39,0,0,0-.37-1.52,1.13,1.13,0,0,0-.89-.44,1.73,1.73,0,0,0-.69.15,2.76,2.76,0,0,0-.67.42,1.78,1.78,0,0,0-.5.66,2.2,2.2,0,0,0-.17.9v3.95Z"/><path class="cls-1" d="M403.49,38.14a3.22,3.22,0,0,1,2.44-1,2.91,2.91,0,0,1,2,.64,2.7,2.7,0,0,1,.73,2.12v4.25h-1v-.75a3.74,3.74,0,0,1-2.46.91,2.69,2.69,0,0,1-1-.16,2.35,2.35,0,0,1-.73-.44,1.85,1.85,0,0,1-.46-.62,1.64,1.64,0,0,1-.16-.69,1.87,1.87,0,0,1,.89-1.63,4.92,4.92,0,0,1,2.57-.66h1.29V39.9a1.94,1.94,0,0,0-.43-1.43,1.86,1.86,0,0,0-1.33-.41,2.43,2.43,0,0,0-1.85.78ZM407.66,41h-1a6.69,6.69,0,0,0-1.35.11,2.48,2.48,0,0,0-.83.31,1.08,1.08,0,0,0-.41.44,1.27,1.27,0,0,0-.11.53,1,1,0,0,0,.42.82,1.57,1.57,0,0,0,1,.35,2.19,2.19,0,0,0,.81-.14,2.72,2.72,0,0,0,.63-.35,2.16,2.16,0,0,0,.43-.42,2,2,0,0,0,.24-.38,1.83,1.83,0,0,0,.15-.81Z"/><path class="cls-1" d="M416.1,38.25l-.63.94s-.08,0-.08-.12a.28.28,0,0,0,0-.15,2.71,2.71,0,0,0-.77-.64,2.2,2.2,0,0,0-1.13-.29,2.23,2.23,0,0,0-.55.07,1.78,1.78,0,0,0-.47.19,1,1,0,0,0-.33.31A.77.77,0,0,0,412,39a.59.59,0,0,0,.09.32,1,1,0,0,0,.29.28,2.65,2.65,0,0,0,.55.27q.36.13.93.3a4.66,4.66,0,0,1,1.83.82,1.49,1.49,0,0,1,.54,1.16A1.94,1.94,0,0,1,416,43a2,2,0,0,1-.57.71,2.81,2.81,0,0,1-.9.47,3.78,3.78,0,0,1-1.18.17,4.11,4.11,0,0,1-2.89-1.08l.61-1.08a.25.25,0,0,1,.06.15.64.64,0,0,0,.11.24,1.36,1.36,0,0,0,.33.32,4,4,0,0,0,.74.39,1.89,1.89,0,0,0,.51.15,3.67,3.67,0,0,0,.57,0,2.61,2.61,0,0,0,.61-.08,2.14,2.14,0,0,0,.56-.22,1.32,1.32,0,0,0,.4-.35.76.76,0,0,0,.15-.46.8.8,0,0,0-.36-.66,4.55,4.55,0,0,0-1.33-.56l-.88-.27a4.52,4.52,0,0,1-.79-.37,2.2,2.2,0,0,1-.44-.38,1.79,1.79,0,0,1-.32-.5,1.51,1.51,0,0,1-.12-.61,1.34,1.34,0,0,1,.2-.69,2,2,0,0,1,.55-.59,3,3,0,0,1,.84-.41,3.41,3.41,0,0,1,1.06-.16A3.28,3.28,0,0,1,416.1,38.25Z"/><path class="cls-1" d="M421,37.17a2.94,2.94,0,0,1,1,.19,2.44,2.44,0,0,1,.89.59,2.93,2.93,0,0,1,.62,1,4.11,4.11,0,0,1,.23,1.46c0,.08,0,.16,0,.25s0,.17,0,.25h-4.87a3.31,3.31,0,0,0,.25,1.21,2.32,2.32,0,0,0,.55.79,2,2,0,0,0,.73.43,2.69,2.69,0,0,0,.81.13A2.3,2.3,0,0,0,423,42.7l.6.58a3,3,0,0,1-2.4,1.05,3.89,3.89,0,0,1-1.37-.23,2.8,2.8,0,0,1-1.06-.68,3.07,3.07,0,0,1-.68-1.12,5,5,0,0,1,0-3.07,3.31,3.31,0,0,1,.67-1.13,2.87,2.87,0,0,1,1-.7A3.13,3.13,0,0,1,421,37.17ZM418.94,40h3.76a.68.68,0,0,1,0-.11.91.91,0,0,0,0-.12,1.75,1.75,0,0,0-.14-.7,1.83,1.83,0,0,0-.94-1,1.64,1.64,0,0,0-.7-.15,1.89,1.89,0,0,0-1.27.5A2.44,2.44,0,0,0,418.94,40Z"/><path class="cls-1" d="M429.21,43.89a4.5,4.5,0,0,1-1.6,2.82l-.51-.45a4.13,4.13,0,0,0,.7-.84,1.53,1.53,0,0,0,.28-.74.4.4,0,0,0-.12-.28l-.26-.25a1.74,1.74,0,0,1-.26-.28.56.56,0,0,1-.12-.35.87.87,0,0,1,.25-.63.85.85,0,0,1,.64-.25.94.94,0,0,1,.71.34A1.29,1.29,0,0,1,429.21,43.89Z"/><path class="cls-1" d="M440,34.83h1.08L443.5,42l2.26-7.17h1l-3.13,9.4h-.48Z"/><path class="cls-1" d="M450.93,37.18a2.93,2.93,0,0,1,1.19.25,2.86,2.86,0,0,1,1,.71,3.48,3.48,0,0,1,.67,1.13,4.27,4.27,0,0,1,.25,1.49,4.37,4.37,0,0,1-.24,1.5,3.47,3.47,0,0,1-.66,1.13,2.79,2.79,0,0,1-1,.72,3,3,0,0,1-1.21.25,2.89,2.89,0,0,1-1.24-.27,3.22,3.22,0,0,1-1-.74,3.53,3.53,0,0,1-.69-1.13,4.09,4.09,0,0,1,0-2.87,3.53,3.53,0,0,1,.71-1.15,3.4,3.4,0,0,1,1-.75A2.81,2.81,0,0,1,450.93,37.18Zm2,3.62a3.52,3.52,0,0,0-.17-1.15,2.69,2.69,0,0,0-.46-.85,2,2,0,0,0-.65-.53,1.75,1.75,0,0,0-1.54,0,1.87,1.87,0,0,0-.64.53,2.66,2.66,0,0,0-.44.83,3.74,3.74,0,0,0,0,2.2,2.86,2.86,0,0,0,.44.86,2,2,0,0,0,.65.55,1.7,1.7,0,0,0,.79.2,1.81,1.81,0,0,0,1.43-.68,2.47,2.47,0,0,0,.43-.83A3.69,3.69,0,0,0,452.94,40.8Z"/><path class="cls-1" d="M457.44,35.5l1.17-.2a.7.7,0,0,1,0,.24l-.05.17-.18,1.62h2.25v.87h-2.25q-.13,1.34-.13,2.52,0,.73,0,1.22a2.29,2.29,0,0,0,.16.79,1,1,0,0,0,.37.45,1.17,1.17,0,0,0,.65.16,2.66,2.66,0,0,0,1.54-.63l.33.85a3.55,3.55,0,0,1-2.13.77,1.85,1.85,0,0,1-1.58-.65,3.39,3.39,0,0,1-.45-2.13q0-.54,0-1.38t.12-2h-1.61v-.87h1.65Z"/><path class="cls-1" d="M463.71,37.33h2.75v6h1.61v.87h-4.44v-.87h1.75V38.2h-1.67Zm1.68-2.76a.74.74,0,0,1,.54-.22.79.79,0,0,1,.78.78.72.72,0,0,1-.23.54.77.77,0,0,1-.55.23.77.77,0,0,1-.76-.77A.76.76,0,0,1,465.39,34.57Z"/><path class="cls-1" d="M470.64,44.19V37.33h1.08v1.21a3.05,3.05,0,0,1,1-1,2.36,2.36,0,0,1,1.25-.37,2.26,2.26,0,0,1,.85.16,1.71,1.71,0,0,1,.68.5,2.43,2.43,0,0,1,.45.88A4.75,4.75,0,0,1,476.1,40v4.16H475V40.06a2.38,2.38,0,0,0-.37-1.52,1.14,1.14,0,0,0-.9-.44,1.85,1.85,0,0,0-.71.15,2.15,2.15,0,0,0-.66.43,2.27,2.27,0,0,0-.48.67,2,2,0,0,0-.19.88v3.95Z"/><path class="cls-1" d="M482.21,37.77a2.55,2.55,0,0,1,1.71-.62h.2l.13.9-.2,0h-.2a2.26,2.26,0,0,0-1.18.32,2.07,2.07,0,0,1,.34,1.16,2.16,2.16,0,0,1-.2.91,2.4,2.4,0,0,1-.53.75,2.53,2.53,0,0,1-.79.51,2.47,2.47,0,0,1-1,.19,2.51,2.51,0,0,1-.87-.17,1.26,1.26,0,0,0-.48.78.44.44,0,0,0,.29.4,1.85,1.85,0,0,0,.8.14l.58,0,.55,0a4.69,4.69,0,0,1,1.16.13,2.18,2.18,0,0,1,.79.36,1.51,1.51,0,0,1,.45.55,1.56,1.56,0,0,1,.15.68,1.72,1.72,0,0,1-.2.79,2,2,0,0,1-.58.67,3,3,0,0,1-1,.46,5,5,0,0,1-1.39.17,6.75,6.75,0,0,1-1.42-.13,3,3,0,0,1-1-.35,1.72,1.72,0,0,1-.55-.52,1.13,1.13,0,0,1-.19-.62q0-.81,1.13-1.51a1,1,0,0,1-.56-.94A1.76,1.76,0,0,1,479,41.4a2.22,2.22,0,0,1-.75-.81,2.16,2.16,0,0,1-.27-1,2.19,2.19,0,0,1,.21-1,2.52,2.52,0,0,1,.56-.77,2.62,2.62,0,0,1,.81-.52,2.45,2.45,0,0,1,.94-.19A2.26,2.26,0,0,1,482.21,37.77Zm-2.67,6.06q-.86.48-.86,1a.75.75,0,0,0,.17.5,1.26,1.26,0,0,0,.46.33,2.68,2.68,0,0,0,.69.19,5.43,5.43,0,0,0,.83.06,3.11,3.11,0,0,0,1.52-.33,1,1,0,0,0,.6-.88.82.82,0,0,0-.34-.63,1.66,1.66,0,0,0-1-.22h-.3l-1,0Zm-.09-5.4a1.41,1.41,0,0,0-.33.49,1.53,1.53,0,0,0-.11.57,1.42,1.42,0,0,0,.12.57,1.49,1.49,0,0,0,.8.8,1.48,1.48,0,0,0,1.16,0,1.6,1.6,0,0,0,.48-.33,1.58,1.58,0,0,0,.33-.48,1.37,1.37,0,0,0,.12-.57,1.42,1.42,0,0,0-.12-.57,1.55,1.55,0,0,0-.82-.81,1.48,1.48,0,0,0-1.64.33Z"/><path class="cls-2" d="M361.12,109.45l2.86-8.24h.1l3.12,8.24h-.94l-.9-2.37h-2.57l-.78,2.37Zm4-3.07L364,103.29l-1,3.09Z"/><path class="cls-2" d="M371.82,103.89a2.21,2.21,0,0,1,1.48-.53h.17l.12.78-.18,0h-.17a2,2,0,0,0-1,.27,1.78,1.78,0,0,1,.3,1,1.87,1.87,0,0,1-.17.79,2.1,2.1,0,0,1-.46.65,2.19,2.19,0,0,1-.68.44,2.12,2.12,0,0,1-.83.16,2.17,2.17,0,0,1-.75-.14,1.1,1.1,0,0,0-.42.68.38.38,0,0,0,.25.35,1.62,1.62,0,0,0,.7.12l.5,0,.47,0a4,4,0,0,1,1,.11,1.88,1.88,0,0,1,.68.31,1.32,1.32,0,0,1,.39.47,1.35,1.35,0,0,1,.13.59,1.48,1.48,0,0,1-.17.68,1.72,1.72,0,0,1-.51.59,2.66,2.66,0,0,1-.85.4,4.33,4.33,0,0,1-1.2.15,5.88,5.88,0,0,1-1.23-.11,2.64,2.64,0,0,1-.83-.3,1.51,1.51,0,0,1-.47-.45,1,1,0,0,1-.16-.54q0-.7,1-1.31a.85.85,0,0,1-.48-.82,1.52,1.52,0,0,1,.68-1.12,1.94,1.94,0,0,1-.65-.7,1.88,1.88,0,0,1-.23-.91,1.9,1.9,0,0,1,.18-.83,2.2,2.2,0,0,1,.49-.67,2.31,2.31,0,0,1,.7-.45,2.14,2.14,0,0,1,.81-.16A2,2,0,0,1,371.82,103.89Zm-2.31,5.25q-.74.42-.74.91a.64.64,0,0,0,.15.44,1.06,1.06,0,0,0,.4.29,2.38,2.38,0,0,0,.6.16,5,5,0,0,0,.72.05,2.72,2.72,0,0,0,1.31-.29.86.86,0,0,0,.52-.77.71.71,0,0,0-.29-.55,1.43,1.43,0,0,0-.84-.19h-.26l-.88,0Zm-.08-4.68a1.23,1.23,0,0,0-.29.43,1.34,1.34,0,0,0-.09.49,1.24,1.24,0,0,0,.1.5,1.31,1.31,0,0,0,.28.41,1.32,1.32,0,0,0,.42.28,1.29,1.29,0,0,0,1,0,1.38,1.38,0,0,0,.7-.7,1.21,1.21,0,0,0,.1-.49,1.26,1.26,0,0,0-.1-.5,1.35,1.35,0,0,0-.71-.71,1.28,1.28,0,0,0-1.42.29Z"/><path class="cls-2" d="M377.28,103.37a2.56,2.56,0,0,1,.91.17,2.14,2.14,0,0,1,.77.51,2.56,2.56,0,0,1,.53.88,3.58,3.58,0,0,1,.2,1.26c0,.07,0,.14,0,.21s0,.14,0,.21h-4.22a2.86,2.86,0,0,0,.21,1,2,2,0,0,0,.47.68,1.7,1.7,0,0,0,.64.37,2.33,2.33,0,0,0,.7.11,2,2,0,0,0,1.53-.66l.52.51a2.56,2.56,0,0,1-2.08.91,3.36,3.36,0,0,1-1.19-.2,2.43,2.43,0,0,1-.92-.59,2.67,2.67,0,0,1-.58-1,4.29,4.29,0,0,1,0-2.66,2.84,2.84,0,0,1,.58-1,2.5,2.5,0,0,1,.86-.61A2.72,2.72,0,0,1,377.28,103.37Zm-1.79,2.5h3.26a.6.6,0,0,1,0-.1.86.86,0,0,0,0-.11,1.54,1.54,0,0,0-.12-.61,1.59,1.59,0,0,0-.82-.84,1.44,1.44,0,0,0-.6-.13,1.64,1.64,0,0,0-1.1.43A2.11,2.11,0,0,0,375.49,105.86Z"/><path class="cls-2" d="M381.3,109.45v-5.94h.94v1.05a2.65,2.65,0,0,1,.87-.87,2,2,0,0,1,1.08-.32,1.93,1.93,0,0,1,.73.14,1.46,1.46,0,0,1,.59.43,2.14,2.14,0,0,1,.39.77,4.11,4.11,0,0,1,.14,1.14v3.6h-.94v-3.58a2.06,2.06,0,0,0-.32-1.31,1,1,0,0,0-.78-.38,1.57,1.57,0,0,0-.61.13,1.85,1.85,0,0,0-.57.37,2,2,0,0,0-.42.58,1.74,1.74,0,0,0-.16.77v3.42Z"/><path class="cls-2" d="M391.73,104.38V100.8h1a.32.32,0,0,1-.07.17.34.34,0,0,0-.07.19v7.73a2,2,0,0,0,.07.55h-.95a1.42,1.42,0,0,1-.05-.44v-.51a2.15,2.15,0,0,1-.78.79,1.94,1.94,0,0,1-1,.29,2.24,2.24,0,0,1-.93-.19,2.15,2.15,0,0,1-.76-.58,2.89,2.89,0,0,1-.53-1,4.48,4.48,0,0,1-.19-1.4,3.92,3.92,0,0,1,.22-1.4,2.77,2.77,0,0,1,.58-.95,2.28,2.28,0,0,1,.8-.55,2.4,2.4,0,0,1,.89-.18,2,2,0,0,1,1.07.28A1.74,1.74,0,0,1,391.73,104.38Zm-2.74.17a2.26,2.26,0,0,0-.55,1.72,3.4,3.4,0,0,0,.42,1.81,1.38,1.38,0,0,0,1.25.68,1.29,1.29,0,0,0,.41-.07,1.4,1.4,0,0,0,.41-.21,1.86,1.86,0,0,0,.35-.34,1.39,1.39,0,0,0,.23-.44,4.5,4.5,0,0,0,.14-1.25,7.45,7.45,0,0,0,0-.83,2.57,2.57,0,0,0-.12-.57,1.2,1.2,0,0,0-.21-.38,1.33,1.33,0,0,0-.32-.27,2.31,2.31,0,0,0-.43-.21,1.12,1.12,0,0,0-.38-.07,1.54,1.54,0,0,0-1.16.44Z"/><path class="cls-2" d="M394.6,104.21a2.79,2.79,0,0,1,2.12-.83,2.53,2.53,0,0,1,1.72.55,2.34,2.34,0,0,1,.63,1.84v3.68h-.88v-.65a3.24,3.24,0,0,1-2.13.79,2.31,2.31,0,0,1-.84-.14,2,2,0,0,1-.63-.38,1.61,1.61,0,0,1-.4-.53,1.43,1.43,0,0,1-.14-.6,1.63,1.63,0,0,1,.77-1.42,4.29,4.29,0,0,1,2.23-.57h1.12v-.22a1.68,1.68,0,0,0-.37-1.24,1.62,1.62,0,0,0-1.15-.35,2.11,2.11,0,0,0-1.6.68Zm3.61,2.46h-.88a5.65,5.65,0,0,0-1.17.1,2.14,2.14,0,0,0-.71.27.92.92,0,0,0-.36.38,1.1,1.1,0,0,0-.1.46.9.9,0,0,0,.36.71,1.37,1.37,0,0,0,.9.3,1.9,1.9,0,0,0,.7-.12,2.36,2.36,0,0,0,.55-.3,1.87,1.87,0,0,0,.38-.36,1.82,1.82,0,0,0,.21-.33,1.58,1.58,0,0,0,.13-.7Z"/><path class="cls-2" d="M407,101.35h2.3a4.74,4.74,0,0,1,1.22.14,2,2,0,0,1,.83.41,1.93,1.93,0,0,1,.48.63,1.81,1.81,0,0,1,.17.78,2,2,0,0,1-.31,1.08,1.68,1.68,0,0,1-.88.71,2.19,2.19,0,0,1,.62.33,2.63,2.63,0,0,1,.49.49,2,2,0,0,1,.31.59,2.11,2.11,0,0,1,.1.66,2.07,2.07,0,0,1-.73,1.65,3.49,3.49,0,0,1-2.3.63H407Zm.9.75v2.6h1.26a3.32,3.32,0,0,0,.89-.1,1.56,1.56,0,0,0,.56-.27,1,1,0,0,0,.32-.41,1.67,1.67,0,0,0,.13-.52,1.76,1.76,0,0,0-.12-.51,1.09,1.09,0,0,0-.3-.41,1.5,1.5,0,0,0-.53-.28,2.6,2.6,0,0,0-.8-.11Zm0,3.35v3.2h1.56a2,2,0,0,0,1.46-.44,1.76,1.76,0,0,0,.46-1.1,2.25,2.25,0,0,0-.14-.67,1.45,1.45,0,0,0-.36-.53,1.57,1.57,0,0,0-.66-.35,3.65,3.65,0,0,0-1-.12Z"/><path class="cls-2" d="M361.12,136.6l2.86-8.24h.1l3.12,8.24h-.94l-.9-2.37h-2.57L362,136.6Zm4-3.07L364,130.44l-1,3.09Z"/><path class="cls-2" d="M371.82,131a2.21,2.21,0,0,1,1.48-.53h.17l.12.78-.18,0h-.17a2,2,0,0,0-1,.27,1.78,1.78,0,0,1,.3,1,1.88,1.88,0,0,1-.17.79,2.1,2.1,0,0,1-.46.65,2.21,2.21,0,0,1-.68.44,2.14,2.14,0,0,1-.83.16,2.17,2.17,0,0,1-.75-.14,1.09,1.09,0,0,0-.42.68.38.38,0,0,0,.25.34,1.6,1.6,0,0,0,.7.12l.5,0,.47,0a4,4,0,0,1,1,.11,1.88,1.88,0,0,1,.68.31,1.32,1.32,0,0,1,.39.47,1.35,1.35,0,0,1,.13.58,1.49,1.49,0,0,1-.17.68,1.71,1.71,0,0,1-.51.58,2.67,2.67,0,0,1-.85.4,4.37,4.37,0,0,1-1.2.15,6,6,0,0,1-1.23-.11,2.61,2.61,0,0,1-.83-.31,1.48,1.48,0,0,1-.47-.45,1,1,0,0,1-.16-.54q0-.7,1-1.31a.85.85,0,0,1-.48-.82,1.52,1.52,0,0,1,.68-1.12,1.94,1.94,0,0,1-.65-.7,1.88,1.88,0,0,1-.23-.91,1.91,1.91,0,0,1,.18-.83,2.21,2.21,0,0,1,.49-.67,2.3,2.3,0,0,1,.7-.45,2.14,2.14,0,0,1,.81-.16A2,2,0,0,1,371.82,131Zm-2.31,5.25q-.74.42-.74.91a.64.64,0,0,0,.15.44,1.07,1.07,0,0,0,.4.29,2.43,2.43,0,0,0,.6.16,4.89,4.89,0,0,0,.72.05,2.7,2.7,0,0,0,1.31-.29.86.86,0,0,0,.52-.77.71.71,0,0,0-.29-.55,1.43,1.43,0,0,0-.84-.2h-.26l-.88,0Zm-.08-4.68a1.24,1.24,0,0,0-.29.43,1.33,1.33,0,0,0-.09.49,1.24,1.24,0,0,0,.1.5,1.32,1.32,0,0,0,.28.41,1.34,1.34,0,0,0,.42.28,1.26,1.26,0,0,0,.5.1,1.25,1.25,0,0,0,.51-.1,1.39,1.39,0,0,0,.7-.7,1.2,1.2,0,0,0,.1-.49,1.25,1.25,0,0,0-.1-.5,1.35,1.35,0,0,0-.71-.71,1.25,1.25,0,0,0-.5-.1A1.27,1.27,0,0,0,369.43,131.61Z"/><path class="cls-2" d="M377.28,130.52a2.54,2.54,0,0,1,.91.17,2.13,2.13,0,0,1,.77.51,2.55,2.55,0,0,1,.53.88,3.58,3.58,0,0,1,.2,1.26c0,.07,0,.14,0,.21s0,.14,0,.21h-4.22a2.87,2.87,0,0,0,.21,1,2,2,0,0,0,.47.68,1.69,1.69,0,0,0,.64.37,2.3,2.3,0,0,0,.7.11,2,2,0,0,0,1.53-.66l.52.51a2.56,2.56,0,0,1-2.08.91,3.39,3.39,0,0,1-1.19-.2,2.43,2.43,0,0,1-.92-.59,2.67,2.67,0,0,1-.58-1,4.29,4.29,0,0,1,0-2.66,2.86,2.86,0,0,1,.58-1,2.51,2.51,0,0,1,.86-.6A2.72,2.72,0,0,1,377.28,130.52Zm-1.79,2.5h3.26a.6.6,0,0,1,0-.1.87.87,0,0,0,0-.11,1.54,1.54,0,0,0-.12-.61,1.59,1.59,0,0,0-.82-.84,1.43,1.43,0,0,0-.6-.13,1.64,1.64,0,0,0-1.1.43A2.1,2.1,0,0,0,375.49,133Z"/><path class="cls-2" d="M381.3,136.6v-5.94h.94v1.05a2.64,2.64,0,0,1,.87-.87,2,2,0,0,1,1.08-.33,2,2,0,0,1,.73.14,1.47,1.47,0,0,1,.59.44,2.13,2.13,0,0,1,.39.77A4.11,4.11,0,0,1,386,133v3.6h-.94V133a2.06,2.06,0,0,0-.32-1.31,1,1,0,0,0-.78-.38,1.58,1.58,0,0,0-.61.13,1.87,1.87,0,0,0-.57.37,2,2,0,0,0-.42.58,1.73,1.73,0,0,0-.16.77v3.42Z"/><path class="cls-2" d="M391.73,131.53V128h1a.32.32,0,0,1-.07.17.34.34,0,0,0-.07.19v7.73a2,2,0,0,0,.07.55h-.95a1.41,1.41,0,0,1-.05-.44v-.51a2.16,2.16,0,0,1-.78.79,1.94,1.94,0,0,1-1,.29,2.24,2.24,0,0,1-.93-.19,2.15,2.15,0,0,1-.76-.58,2.9,2.9,0,0,1-.53-1,4.48,4.48,0,0,1-.19-1.4,3.92,3.92,0,0,1,.22-1.4,2.77,2.77,0,0,1,.58-.95,2.26,2.26,0,0,1,.8-.55,2.4,2.4,0,0,1,.89-.18,2,2,0,0,1,1.07.28A1.74,1.74,0,0,1,391.73,131.53Zm-2.74.17a2.26,2.26,0,0,0-.55,1.72,3.4,3.4,0,0,0,.42,1.81,1.38,1.38,0,0,0,1.25.68,1.32,1.32,0,0,0,.41-.07,1.43,1.43,0,0,0,.41-.21,1.83,1.83,0,0,0,.35-.34,1.37,1.37,0,0,0,.23-.44,4.49,4.49,0,0,0,.14-1.25,7.44,7.44,0,0,0,0-.83,2.58,2.58,0,0,0-.12-.57,1.21,1.21,0,0,0-.21-.38,1.33,1.33,0,0,0-.32-.27,2.39,2.39,0,0,0-.43-.22,1.14,1.14,0,0,0-.38-.07,1.54,1.54,0,0,0-1.16.44Z"/><path class="cls-2" d="M394.6,131.36a2.79,2.79,0,0,1,2.12-.83,2.52,2.52,0,0,1,1.72.55,2.34,2.34,0,0,1,.63,1.84v3.68h-.88V136a3.24,3.24,0,0,1-2.13.79,2.31,2.31,0,0,1-.84-.14,2,2,0,0,1-.63-.38,1.6,1.6,0,0,1-.4-.53,1.43,1.43,0,0,1-.14-.6,1.62,1.62,0,0,1,.77-1.42,4.28,4.28,0,0,1,2.23-.57h1.12v-.22a1.68,1.68,0,0,0-.37-1.24,1.61,1.61,0,0,0-1.15-.35,2.11,2.11,0,0,0-1.6.68Zm3.61,2.46h-.88a5.72,5.72,0,0,0-1.17.1,2.16,2.16,0,0,0-.71.27.92.92,0,0,0-.36.38,1.09,1.09,0,0,0-.1.46.9.9,0,0,0,.36.71,1.36,1.36,0,0,0,.9.3,1.88,1.88,0,0,0,.7-.12,2.33,2.33,0,0,0,.55-.3,1.9,1.9,0,0,0,.38-.36,1.82,1.82,0,0,0,.21-.33,1.58,1.58,0,0,0,.13-.7Z"/><path class="cls-2" d="M411.59,130.34a.52.52,0,0,0,0-.23,2,2,0,0,0-.68-.67,1.69,1.69,0,0,0-.88-.25,1.63,1.63,0,0,0-.83.23,2.18,2.18,0,0,0-.69.66,3.46,3.46,0,0,0-.47,1.06,5.94,5.94,0,0,0,0,2.81,3.5,3.5,0,0,0,.47,1.08,2.31,2.31,0,0,0,.71.7,1.67,1.67,0,0,0,.88.25,1.76,1.76,0,0,0,.93-.27,2.07,2.07,0,0,0,.72-.74l.68.44a2.51,2.51,0,0,1-.47.57,3.06,3.06,0,0,1-.58.42,2.8,2.8,0,0,1-.61.25,2.33,2.33,0,0,1-.62.08,3,3,0,0,1-1.24-.24,2.89,2.89,0,0,1-1-.75,3.51,3.51,0,0,1-.7-1.29,6.18,6.18,0,0,1-.25-1.86,6,6,0,0,1,.29-2,3.48,3.48,0,0,1,.75-1.28,2.77,2.77,0,0,1,1-.68,2.84,2.84,0,0,1,1-.2,2.67,2.67,0,0,1,.79.12,3,3,0,0,1,.72.33,2.73,2.73,0,0,1,.59.5,2.39,2.39,0,0,1,.42.66l-.87.43A.15.15,0,0,1,411.59,130.34Z"/><path class="cls-2" d="M52,85.27h2.6a3.33,3.33,0,0,1,1.15.18,2,2,0,0,1,.78.49,2.06,2.06,0,0,1,.46.73,3.12,3.12,0,0,1,.18.88,3,3,0,0,1-.18.88,2,2,0,0,1-.44.71,2.08,2.08,0,0,1-.75.47,3.18,3.18,0,0,1-1.12.17H52.9v3.58H52Zm.94.86V89h1.63a1.7,1.7,0,0,0,1.25-.38,1.56,1.56,0,0,0,.41-1,2.15,2.15,0,0,0-.12-.57,1.27,1.27,0,0,0-.29-.46,1.43,1.43,0,0,0-.5-.31,2,2,0,0,0-.73-.12Z"/><path class="cls-2" d="M61,87.3a2.54,2.54,0,0,1,1,.21,2.48,2.48,0,0,1,.85.62,3,3,0,0,1,.58,1,3.72,3.72,0,0,1,.21,1.29,3.78,3.78,0,0,1-.21,1.3,3,3,0,0,1-.57,1,2.44,2.44,0,0,1-.86.62,2.61,2.61,0,0,1-1.05.21,2.49,2.49,0,0,1-1.07-.23,2.81,2.81,0,0,1-.88-.64,3.09,3.09,0,0,1-.6-1,3.56,3.56,0,0,1,0-2.48,3.06,3.06,0,0,1,.61-1,2.94,2.94,0,0,1,.89-.65A2.43,2.43,0,0,1,61,87.3Zm1.74,3.13a3.06,3.06,0,0,0-.15-1,2.34,2.34,0,0,0-.4-.73,1.72,1.72,0,0,0-.57-.46,1.52,1.52,0,0,0-1.34,0,1.65,1.65,0,0,0-.56.46,2.35,2.35,0,0,0-.38.72,3.25,3.25,0,0,0,0,1.9,2.51,2.51,0,0,0,.38.74,1.71,1.71,0,0,0,.57.48,1.47,1.47,0,0,0,.69.17,1.56,1.56,0,0,0,1.24-.59,2.12,2.12,0,0,0,.38-.72A3.19,3.19,0,0,0,62.74,90.43Z"/><path class="cls-2" d="M64.42,85.27h.85l.87,5.47,1.3-4.87h.29L69,90.77l.74-5.5h.77l-1.29,8.15h-.35l-1.39-5.34L66.1,93.42h-.38Z"/><path class="cls-2" d="M77.85,85.27h1s0,0,0,0a.33.33,0,0,1-.06.15.72.72,0,0,0-.08.24V90.6a3.33,3.33,0,0,0,.13,1,1.66,1.66,0,0,0,.37.61,1.46,1.46,0,0,0,.55.36,2.47,2.47,0,0,0,.68.14,2.88,2.88,0,0,0,.68-.13,1.33,1.33,0,0,0,.56-.36,1.79,1.79,0,0,0,.38-.63,3.36,3.36,0,0,0,.14-1.08V85.27h.87v5.27a4.41,4.41,0,0,1-.18,1.34,2.22,2.22,0,0,1-.54.91,2.35,2.35,0,0,1-.84.55,3,3,0,0,1-1.08.18,3,3,0,0,1-1.06-.18,2.23,2.23,0,0,1-.83-.53,2.38,2.38,0,0,1-.53-.86,4,4,0,0,1-.19-1.37Z"/><path class="cls-2" d="M84.47,87.43h.92v.91a2.16,2.16,0,0,1,.8-.76,2.06,2.06,0,0,1,1-.28,2.45,2.45,0,0,1,.95.19,2.25,2.25,0,0,1,.8.57,2.73,2.73,0,0,1,.55.95,4.58,4.58,0,0,1,0,2.73,3,3,0,0,1-.57,1,2.38,2.38,0,0,1-.8.6,2.25,2.25,0,0,1-.92.2,2.17,2.17,0,0,1-1-.25,2.12,2.12,0,0,1-.77-.69v3h-.94Zm.92,3.46a2,2,0,0,0,.45,1.37,1.41,1.41,0,0,0,1,.41,2.19,2.19,0,0,0,.65-.1,1.61,1.61,0,0,0,.6-.36,1.77,1.77,0,0,0,.44-.67,3.44,3.44,0,0,0-.31-2.8,1.65,1.65,0,0,0-1.34-.65,1.7,1.7,0,0,0-.54.09,1.22,1.22,0,0,0-.49.31,1.64,1.64,0,0,0-.35.59,2.62,2.62,0,0,0-.14.91Z"/><path class="cls-2" d="M94.6,87.81a2.21,2.21,0,0,1,1.48-.53h.17l.12.78-.18,0H96a2,2,0,0,0-1,.27,1.79,1.79,0,0,1,.3,1,1.86,1.86,0,0,1-.17.79,2,2,0,0,1-.46.65,2.19,2.19,0,0,1-.68.44,2.15,2.15,0,0,1-.83.16,2.19,2.19,0,0,1-.75-.14,1.09,1.09,0,0,0-.42.68.38.38,0,0,0,.25.34,1.63,1.63,0,0,0,.7.12l.5,0,.47,0a4,4,0,0,1,1,.11,1.89,1.89,0,0,1,.68.31,1.32,1.32,0,0,1,.39.47,1.35,1.35,0,0,1,.13.58,1.5,1.5,0,0,1-.17.68,1.72,1.72,0,0,1-.51.58,2.66,2.66,0,0,1-.85.4,4.36,4.36,0,0,1-1.2.15,6,6,0,0,1-1.23-.11,2.6,2.6,0,0,1-.82-.31,1.46,1.46,0,0,1-.47-.45,1,1,0,0,1-.16-.54q0-.7,1-1.31a.85.85,0,0,1-.48-.82A1.52,1.52,0,0,1,91.86,91a1.94,1.94,0,0,1-.65-.7,1.87,1.87,0,0,1-.23-.91,1.91,1.91,0,0,1,.18-.83,2.22,2.22,0,0,1,.49-.67,2.31,2.31,0,0,1,.7-.45,2.13,2.13,0,0,1,.81-.16A2,2,0,0,1,94.6,87.81Zm-2.31,5.25q-.74.42-.74.91a.64.64,0,0,0,.15.44,1.06,1.06,0,0,0,.4.29,2.41,2.41,0,0,0,.6.16,4.91,4.91,0,0,0,.72.05,2.71,2.71,0,0,0,1.31-.29.86.86,0,0,0,.52-.77.71.71,0,0,0-.29-.55,1.43,1.43,0,0,0-.84-.2h-.26l-.88,0Zm-.08-4.68a1.24,1.24,0,0,0-.29.43,1.33,1.33,0,0,0-.09.49,1.22,1.22,0,0,0,.11.5,1.28,1.28,0,0,0,.28.41,1.34,1.34,0,0,0,.42.28,1.29,1.29,0,0,0,1,0,1.43,1.43,0,0,0,.42-.29,1.39,1.39,0,0,0,.29-.41,1.21,1.21,0,0,0,.1-.49,1.26,1.26,0,0,0-.1-.5,1.38,1.38,0,0,0-.29-.42,1.39,1.39,0,0,0-.42-.28,1.24,1.24,0,0,0-.5-.1A1.27,1.27,0,0,0,92.21,88.38Z"/><path class="cls-2" d="M98,87.43h1l0,1.14a2,2,0,0,1,.87-1,2.56,2.56,0,0,1,1.27-.33,2.11,2.11,0,0,1,1.59.65l-.43.9c-.1-.13-.18-.24-.26-.32a1.34,1.34,0,0,0-.25-.22,1.22,1.22,0,0,0-.3-.14,1.35,1.35,0,0,0-.4-.05,1.69,1.69,0,0,0-.81.2,2.24,2.24,0,0,0-.66.53,2.75,2.75,0,0,0-.45.76,2.41,2.41,0,0,0-.17.9v2.9H98Z"/><path class="cls-2" d="M104.38,88.13a2.79,2.79,0,0,1,2.12-.83,2.52,2.52,0,0,1,1.72.55,2.34,2.34,0,0,1,.63,1.84v3.68H108v-.65a3.24,3.24,0,0,1-2.13.79,2.3,2.3,0,0,1-.84-.14,2,2,0,0,1-.63-.38,1.6,1.6,0,0,1-.4-.53,1.42,1.42,0,0,1-.14-.6,1.62,1.62,0,0,1,.77-1.42,4.26,4.26,0,0,1,2.23-.57H108v-.22a1.68,1.68,0,0,0-.37-1.24,1.61,1.61,0,0,0-1.15-.35,2.11,2.11,0,0,0-1.6.68ZM108,90.59h-.88a5.72,5.72,0,0,0-1.17.1,2.18,2.18,0,0,0-.71.27.93.93,0,0,0-.36.38,1.11,1.11,0,0,0-.1.46.9.9,0,0,0,.36.71,1.37,1.37,0,0,0,.9.3,1.89,1.89,0,0,0,.7-.12,2.31,2.31,0,0,0,.55-.3,1.9,1.9,0,0,0,.38-.36,1.79,1.79,0,0,0,.21-.33A1.57,1.57,0,0,0,108,91Z"/><path class="cls-2" d="M114.5,88.3V84.73h1a.32.32,0,0,1-.07.17.34.34,0,0,0-.06.19v7.74a2.07,2.07,0,0,0,.06.55h-.95a1.38,1.38,0,0,1-.05-.44v-.51a2.17,2.17,0,0,1-.78.79,1.94,1.94,0,0,1-1,.29,2.23,2.23,0,0,1-.93-.19,2.16,2.16,0,0,1-.76-.59,2.87,2.87,0,0,1-.53-1,4.46,4.46,0,0,1-.2-1.4,3.93,3.93,0,0,1,.22-1.4,2.77,2.77,0,0,1,.58-.95,2.27,2.27,0,0,1,.8-.55,2.4,2.4,0,0,1,.89-.18,2,2,0,0,1,1.07.28A1.75,1.75,0,0,1,114.5,88.3Zm-2.74.17a2.26,2.26,0,0,0-.55,1.72,3.41,3.41,0,0,0,.42,1.81,1.38,1.38,0,0,0,1.25.68,1.33,1.33,0,0,0,.41-.07,1.45,1.45,0,0,0,.41-.21,1.84,1.84,0,0,0,.35-.34,1.38,1.38,0,0,0,.23-.44,4.49,4.49,0,0,0,.14-1.25,7.47,7.47,0,0,0,0-.83,2.53,2.53,0,0,0-.12-.57,1.18,1.18,0,0,0-.21-.38,1.36,1.36,0,0,0-.32-.27,2.38,2.38,0,0,0-.43-.21,1.14,1.14,0,0,0-.38-.07,1.7,1.7,0,0,0-.63.1A1.72,1.72,0,0,0,111.77,88.47Z"/><path class="cls-2" d="M119.56,87.29a2.54,2.54,0,0,1,.91.17,2.13,2.13,0,0,1,.77.51,2.55,2.55,0,0,1,.53.88,3.6,3.6,0,0,1,.2,1.26c0,.07,0,.14,0,.21s0,.15,0,.21h-4.22a2.88,2.88,0,0,0,.21,1,2,2,0,0,0,.47.68,1.69,1.69,0,0,0,.64.37,2.31,2.31,0,0,0,.7.11,2,2,0,0,0,1.54-.66l.52.51a2.56,2.56,0,0,1-2.08.91,3.39,3.39,0,0,1-1.19-.2,2.43,2.43,0,0,1-.92-.59,2.67,2.67,0,0,1-.59-1,4.3,4.3,0,0,1,0-2.66,2.87,2.87,0,0,1,.58-1,2.51,2.51,0,0,1,.87-.6A2.71,2.71,0,0,1,119.56,87.29Zm-1.79,2.5H121a.73.73,0,0,1,0-.1.87.87,0,0,0,0-.11,1.54,1.54,0,0,0-.12-.61,1.61,1.61,0,0,0-.33-.5,1.63,1.63,0,0,0-.49-.34,1.43,1.43,0,0,0-.61-.13,1.64,1.64,0,0,0-1.1.43A2.1,2.1,0,0,0,117.77,89.78Z"/><path class="cls-2" d="M52,114.76h2.6a3.33,3.33,0,0,1,1.15.18,2,2,0,0,1,.78.49,2.06,2.06,0,0,1,.46.73,3.12,3.12,0,0,1,.18.88,3,3,0,0,1-.18.88,2,2,0,0,1-.44.71,2.08,2.08,0,0,1-.75.47,3.18,3.18,0,0,1-1.12.17H52.9v3.58H52Zm.94.86v2.86h1.63a1.7,1.7,0,0,0,1.25-.38,1.56,1.56,0,0,0,.41-1,2.15,2.15,0,0,0-.12-.57,1.27,1.27,0,0,0-.29-.46,1.43,1.43,0,0,0-.5-.31,2,2,0,0,0-.73-.12Z"/><path class="cls-2" d="M61,116.79a2.54,2.54,0,0,1,1,.21,2.48,2.48,0,0,1,.85.62,3,3,0,0,1,.58,1,3.72,3.72,0,0,1,.21,1.29,3.78,3.78,0,0,1-.21,1.3,3,3,0,0,1-.57,1,2.44,2.44,0,0,1-.86.62A2.61,2.61,0,0,1,61,123a2.49,2.49,0,0,1-1.07-.23,2.81,2.81,0,0,1-.88-.64,3.09,3.09,0,0,1-.6-1,3.56,3.56,0,0,1,0-2.48,3.06,3.06,0,0,1,.61-1,2.94,2.94,0,0,1,.89-.65A2.43,2.43,0,0,1,61,116.79Zm1.74,3.13a3.06,3.06,0,0,0-.15-1,2.34,2.34,0,0,0-.4-.73,1.72,1.72,0,0,0-.57-.46,1.52,1.52,0,0,0-1.34,0,1.65,1.65,0,0,0-.56.46,2.35,2.35,0,0,0-.38.72,3.25,3.25,0,0,0,0,1.9,2.51,2.51,0,0,0,.38.74,1.71,1.71,0,0,0,.57.48,1.47,1.47,0,0,0,.69.17,1.56,1.56,0,0,0,1.24-.59,2.12,2.12,0,0,0,.38-.72A3.19,3.19,0,0,0,62.74,119.92Z"/><path class="cls-2" d="M69.85,115.72l-.57.78a.11.11,0,0,1-.07-.11.28.28,0,0,0,0-.12,1.79,1.79,0,0,0-.67-.58,2.24,2.24,0,0,0-1-.22,1.45,1.45,0,0,0-1,.35,1.08,1.08,0,0,0-.4.83,1.16,1.16,0,0,0,.1.49,1.37,1.37,0,0,0,.3.4,2.59,2.59,0,0,0,.59.4q.39.2,1,.45a7.17,7.17,0,0,1,1,.49,2.66,2.66,0,0,1,.63.51A1.68,1.68,0,0,1,70,120a2.2,2.2,0,0,1,.1.68,2.38,2.38,0,0,1-.16.84,2.07,2.07,0,0,1-.49.75,2.51,2.51,0,0,1-.84.54,3.21,3.21,0,0,1-1.22.21,3.29,3.29,0,0,1-2.54-1l.53-.94a.14.14,0,0,1,.06.13.24.24,0,0,0,0,.14,2.34,2.34,0,0,0,.81.63,2.7,2.7,0,0,0,1.22.25,1.77,1.77,0,0,0,.67-.12,1.75,1.75,0,0,0,.53-.33,1.48,1.48,0,0,0,.35-.48,1.36,1.36,0,0,0,.13-.59,1.14,1.14,0,0,0-.08-.45,1.08,1.08,0,0,0-.28-.38,2.47,2.47,0,0,0-.55-.35q-.36-.18-.94-.41a7,7,0,0,1-1.06-.5,3.46,3.46,0,0,1-.68-.51,1.52,1.52,0,0,1-.37-.56,1.85,1.85,0,0,1-.11-.65,1.9,1.9,0,0,1,.19-.83,2.18,2.18,0,0,1,.52-.68,2.38,2.38,0,0,1,.79-.46,2.89,2.89,0,0,1,1-.16,3,3,0,0,1,1.25.27A2.91,2.91,0,0,1,69.85,115.72Z"/><path class="cls-2" d="M77.85,114.76h1s0,0,0,0a.33.33,0,0,1-.06.15.72.72,0,0,0-.08.24v4.91a3.33,3.33,0,0,0,.13,1,1.66,1.66,0,0,0,.37.61,1.46,1.46,0,0,0,.55.36,2.47,2.47,0,0,0,.68.14,2.88,2.88,0,0,0,.68-.13,1.33,1.33,0,0,0,.56-.36,1.79,1.79,0,0,0,.38-.63,3.36,3.36,0,0,0,.14-1.08v-5.29h.87V120a4.41,4.41,0,0,1-.18,1.34,2.22,2.22,0,0,1-.54.91,2.35,2.35,0,0,1-.84.55,3,3,0,0,1-1.08.18,3,3,0,0,1-1.06-.18,2.23,2.23,0,0,1-.83-.53,2.38,2.38,0,0,1-.53-.86,4,4,0,0,1-.19-1.37Z"/><path class="cls-2" d="M84.47,116.92h.92v.91a2.16,2.16,0,0,1,.8-.76,2.06,2.06,0,0,1,1-.28,2.45,2.45,0,0,1,.95.19,2.25,2.25,0,0,1,.8.57,2.73,2.73,0,0,1,.55.95,4.58,4.58,0,0,1,0,2.73,3,3,0,0,1-.57,1,2.38,2.38,0,0,1-.8.6,2.25,2.25,0,0,1-.92.2,2.17,2.17,0,0,1-1-.25,2.12,2.12,0,0,1-.77-.69v3h-.94Zm.92,3.46a2,2,0,0,0,.45,1.37,1.41,1.41,0,0,0,1,.41,2.19,2.19,0,0,0,.65-.1,1.61,1.61,0,0,0,.6-.36,1.77,1.77,0,0,0,.44-.67,3.44,3.44,0,0,0-.31-2.8,1.65,1.65,0,0,0-1.34-.65,1.7,1.7,0,0,0-.54.09,1.22,1.22,0,0,0-.49.31,1.64,1.64,0,0,0-.35.59,2.62,2.62,0,0,0-.14.91Z"/><path class="cls-2" d="M94.6,117.3a2.21,2.21,0,0,1,1.48-.53h.17l.12.78-.18,0H96a2,2,0,0,0-1,.27,1.79,1.79,0,0,1,.3,1,1.86,1.86,0,0,1-.17.79,2,2,0,0,1-.46.65,2.19,2.19,0,0,1-.68.44,2.15,2.15,0,0,1-.83.16,2.19,2.19,0,0,1-.75-.14,1.09,1.09,0,0,0-.42.68.38.38,0,0,0,.25.34,1.63,1.63,0,0,0,.7.12l.5,0,.47,0a4,4,0,0,1,1,.11,1.89,1.89,0,0,1,.68.31,1.32,1.32,0,0,1,.39.47,1.35,1.35,0,0,1,.13.58,1.5,1.5,0,0,1-.17.68,1.72,1.72,0,0,1-.51.58,2.66,2.66,0,0,1-.85.4,4.36,4.36,0,0,1-1.2.15,6,6,0,0,1-1.23-.11,2.6,2.6,0,0,1-.82-.31,1.46,1.46,0,0,1-.47-.45,1,1,0,0,1-.16-.54q0-.7,1-1.31a.85.85,0,0,1-.48-.82,1.52,1.52,0,0,1,.68-1.12,1.94,1.94,0,0,1-.65-.7,1.87,1.87,0,0,1-.23-.91,1.91,1.91,0,0,1,.18-.83,2.22,2.22,0,0,1,.49-.67,2.31,2.31,0,0,1,.7-.45,2.13,2.13,0,0,1,.81-.16A2,2,0,0,1,94.6,117.3Zm-2.31,5.25q-.74.42-.74.91a.64.64,0,0,0,.15.44,1.06,1.06,0,0,0,.4.29,2.41,2.41,0,0,0,.6.16,4.91,4.91,0,0,0,.72.05,2.71,2.71,0,0,0,1.31-.29.86.86,0,0,0,.52-.77.71.71,0,0,0-.29-.55,1.43,1.43,0,0,0-.84-.2h-.26l-.88,0Zm-.08-4.68a1.24,1.24,0,0,0-.29.43,1.33,1.33,0,0,0-.09.49,1.22,1.22,0,0,0,.11.5,1.28,1.28,0,0,0,.28.41,1.34,1.34,0,0,0,.42.28,1.29,1.29,0,0,0,1,0,1.43,1.43,0,0,0,.42-.29,1.39,1.39,0,0,0,.29-.41,1.21,1.21,0,0,0,.1-.49,1.26,1.26,0,0,0-.1-.5,1.38,1.38,0,0,0-.29-.42,1.39,1.39,0,0,0-.42-.28,1.24,1.24,0,0,0-.5-.1A1.27,1.27,0,0,0,92.21,117.87Z"/><path class="cls-2" d="M98,116.92h1l0,1.14a2,2,0,0,1,.87-1,2.56,2.56,0,0,1,1.27-.33,2.11,2.11,0,0,1,1.59.65l-.43.9c-.1-.13-.18-.24-.26-.32a1.34,1.34,0,0,0-.25-.22,1.22,1.22,0,0,0-.3-.14,1.35,1.35,0,0,0-.4-.05,1.69,1.69,0,0,0-.81.2,2.24,2.24,0,0,0-.66.53,2.75,2.75,0,0,0-.45.76,2.41,2.41,0,0,0-.17.9v2.9H98Z"/><path class="cls-2" d="M104.38,117.62a2.79,2.79,0,0,1,2.12-.83,2.52,2.52,0,0,1,1.72.55,2.34,2.34,0,0,1,.63,1.84v3.68H108v-.65a3.24,3.24,0,0,1-2.13.79,2.3,2.3,0,0,1-.84-.14,2,2,0,0,1-.63-.38,1.6,1.6,0,0,1-.4-.53,1.42,1.42,0,0,1-.14-.6,1.62,1.62,0,0,1,.77-1.42,4.26,4.26,0,0,1,2.23-.57H108v-.22a1.68,1.68,0,0,0-.37-1.24,1.61,1.61,0,0,0-1.15-.35,2.11,2.11,0,0,0-1.6.68Zm3.62,2.46h-.88a5.72,5.72,0,0,0-1.17.1,2.18,2.18,0,0,0-.71.27.93.93,0,0,0-.36.38,1.11,1.11,0,0,0-.1.46.9.9,0,0,0,.36.71,1.37,1.37,0,0,0,.9.3,1.89,1.89,0,0,0,.7-.12,2.31,2.31,0,0,0,.55-.3,1.9,1.9,0,0,0,.38-.36,1.79,1.79,0,0,0,.21-.33,1.57,1.57,0,0,0,.13-.7Z"/><path class="cls-2" d="M114.5,117.79v-3.57h1a.32.32,0,0,1-.07.17.34.34,0,0,0-.06.19v7.74a2.07,2.07,0,0,0,.06.55h-.95a1.38,1.38,0,0,1-.05-.44v-.51a2.17,2.17,0,0,1-.78.79,1.94,1.94,0,0,1-1,.29,2.23,2.23,0,0,1-.93-.19,2.16,2.16,0,0,1-.76-.59,2.87,2.87,0,0,1-.53-1,4.46,4.46,0,0,1-.2-1.4,3.93,3.93,0,0,1,.22-1.4,2.77,2.77,0,0,1,.58-.95,2.27,2.27,0,0,1,.8-.55,2.4,2.4,0,0,1,.89-.18,2,2,0,0,1,1.07.28A1.75,1.75,0,0,1,114.5,117.79Zm-2.74.17a2.26,2.26,0,0,0-.55,1.72,3.41,3.41,0,0,0,.42,1.81,1.38,1.38,0,0,0,1.25.68,1.33,1.33,0,0,0,.41-.07,1.45,1.45,0,0,0,.41-.21,1.84,1.84,0,0,0,.35-.34,1.38,1.38,0,0,0,.23-.44,4.49,4.49,0,0,0,.14-1.25,7.47,7.47,0,0,0,0-.83,2.53,2.53,0,0,0-.12-.57,1.18,1.18,0,0,0-.21-.38,1.36,1.36,0,0,0-.32-.27,2.38,2.38,0,0,0-.43-.21,1.14,1.14,0,0,0-.38-.07,1.7,1.7,0,0,0-.63.1A1.72,1.72,0,0,0,111.77,118Z"/><path class="cls-2" d="M119.56,116.78a2.54,2.54,0,0,1,.91.17,2.13,2.13,0,0,1,.77.51,2.55,2.55,0,0,1,.53.88,3.6,3.6,0,0,1,.2,1.26c0,.07,0,.14,0,.21s0,.15,0,.21h-4.22a2.88,2.88,0,0,0,.21,1,2,2,0,0,0,.47.68,1.69,1.69,0,0,0,.64.37,2.31,2.31,0,0,0,.7.11,2,2,0,0,0,1.54-.66l.52.51a2.56,2.56,0,0,1-2.08.91,3.39,3.39,0,0,1-1.19-.2,2.43,2.43,0,0,1-.92-.59,2.67,2.67,0,0,1-.59-1,4.3,4.3,0,0,1,0-2.66,2.87,2.87,0,0,1,.58-1,2.51,2.51,0,0,1,.87-.6A2.71,2.71,0,0,1,119.56,116.78Zm-1.79,2.5H121a.73.73,0,0,1,0-.1.87.87,0,0,0,0-.11,1.54,1.54,0,0,0-.12-.61,1.61,1.61,0,0,0-.33-.5,1.63,1.63,0,0,0-.49-.34,1.43,1.43,0,0,0-.61-.13,1.64,1.64,0,0,0-1.1.43A2.1,2.1,0,0,0,117.77,119.27Z"/><path class="cls-3" d="M516.73,64.69a5.13,5.13,0,0,0-5.13,5.13v2.8h-.47a1.41,1.41,0,0,0-1.4,1.4v8.4a1.41,1.41,0,0,0,1.4,1.4h11.2a1.41,1.41,0,0,0,1.4-1.4V74a1.41,1.41,0,0,0-1.4-1.4h-.47v-2.8a5.13,5.13,0,0,0-5.13-5.13Zm0,.93a4.18,4.18,0,0,1,4.2,4.2v2.8h-8.4v-2.8A4.18,4.18,0,0,1,516.73,65.62Zm-5.6,7.93h11.2a.46.46,0,0,1,.47.47v8.4a.46.46,0,0,1-.47.47h-11.2a.46.46,0,0,1-.47-.47V74a.46.46,0,0,1,.47-.47Z"/><path class="cls-3" d="M564.71,79.41a6.63,6.63,0,0,1-2.62-5.25,6.46,6.46,0,0,1,2.39-5.06l.61.7a5.67,5.67,0,0,0,.23,8.85Z"/><path class="cls-3" d="M572.67,79.41l-.56-.75a5.66,5.66,0,0,0,2.25-4.5,5.73,5.73,0,0,0-2-4.36l.61-.7a6.61,6.61,0,0,1,2.39,5.06A7,7,0,0,1,572.67,79.41Z"/><path class="cls-3" d="M568.69,76.64a2.53,2.53,0,1,1,2.53-2.53A2.52,2.52,0,0,1,568.69,76.64Zm0-4.07a1.59,1.59,0,1,0,1.59,1.59A1.58,1.58,0,0,0,568.69,72.57Z"/><path class="cls-3" d="M562.6,82.08a9.89,9.89,0,0,1-3.93-8,10,10,0,0,1,3.61-7.68l.61.7a9.08,9.08,0,0,0,.28,14.19Z"/><path class="cls-3" d="M574.73,82.08l-.56-.75a9.08,9.08,0,0,0,.28-14.19l.61-.7a10,10,0,0,1,3.61,7.68A9.89,9.89,0,0,1,574.73,82.08Z"/><rect class="cls-1" x="143.77" y="90.62" width="60.01" height="1"/><rect class="cls-1" x="143.77" y="119.79" width="60.01" height="1"/><rect class="cls-1" x="202.78" y="90.62" width="1" height="30.17"/><rect class="cls-1" x="202.78" y="105.21" width="109.2" height="1"/><rect class="cls-1" x="433.6" y="73.75" width="70.13" height="1"/><rect class="cls-1" x="529.24" y="73.75" width="20.13" height="1"/><path class="cls-3" d="M456.73,95.69a5.13,5.13,0,0,0-5.13,5.13v2.8h-.47a1.41,1.41,0,0,0-1.4,1.4v8.4a1.41,1.41,0,0,0,1.4,1.4h11.2a1.41,1.41,0,0,0,1.4-1.4V105a1.41,1.41,0,0,0-1.4-1.4h-.47v-2.8a5.13,5.13,0,0,0-5.13-5.13Zm0,.93a4.18,4.18,0,0,1,4.2,4.2v2.8h-8.4v-2.8A4.18,4.18,0,0,1,456.73,96.62Zm-5.6,7.93h11.2a.46.46,0,0,1,.47.47v8.4a.46.46,0,0,1-.47.47h-11.2a.46.46,0,0,1-.47-.47V105a.46.46,0,0,1,.47-.47Z"/><path class="cls-3" d="M514.71,110.87a6.63,6.63,0,0,1-2.62-5.25,6.46,6.46,0,0,1,2.39-5.06l.61.7a5.67,5.67,0,0,0,.23,8.85Z"/><path class="cls-3" d="M522.67,110.87l-.56-.75a5.66,5.66,0,0,0,2.25-4.5,5.73,5.73,0,0,0-2-4.36l.61-.7a6.61,6.61,0,0,1,2.39,5.06A7,7,0,0,1,522.67,110.87Z"/><path class="cls-3" d="M518.69,108.11a2.53,2.53,0,1,1,2.53-2.53A2.52,2.52,0,0,1,518.69,108.11Zm0-4.07a1.59,1.59,0,1,0,1.59,1.59A1.58,1.58,0,0,0,518.69,104Z"/><path class="cls-3" d="M512.6,113.54a9.89,9.89,0,0,1-3.93-8,10,10,0,0,1,3.61-7.68l.61.7a9.08,9.08,0,0,0,.28,14.19Z"/><path class="cls-3" d="M524.73,113.54l-.56-.75a9.08,9.08,0,0,0,.28-14.19l.61-.7a10,10,0,0,1,3.61,7.68A9.89,9.89,0,0,1,524.73,113.54Z"/><rect class="cls-1" x="433.6" y="105.22" width="10.13" height="1"/><rect class="cls-1" x="469.24" y="105.22" width="30.13" height="1"/><path class="cls-3" d="M476.73,123a5.13,5.13,0,0,0-5.13,5.13v2.8h-.47a1.41,1.41,0,0,0-1.4,1.4v8.4a1.41,1.41,0,0,0,1.4,1.4h11.2a1.41,1.41,0,0,0,1.4-1.4v-8.4a1.41,1.41,0,0,0-1.4-1.4h-.47v-2.8a5.13,5.13,0,0,0-5.13-5.13Zm0,.93a4.18,4.18,0,0,1,4.2,4.2v2.8h-8.4v-2.8A4.18,4.18,0,0,1,476.73,123.9Zm-5.6,7.93h11.2a.46.46,0,0,1,.47.47v8.4a.46.46,0,0,1-.47.47h-11.2a.46.46,0,0,1-.47-.47v-8.4a.46.46,0,0,1,.47-.47Z"/><path class="cls-3" d="M534.71,138.15a6.63,6.63,0,0,1-2.62-5.25,6.46,6.46,0,0,1,2.39-5.06l.61.7a5.67,5.67,0,0,0,.23,8.85Z"/><path class="cls-3" d="M542.67,138.15l-.56-.75a5.66,5.66,0,0,0,2.25-4.5,5.73,5.73,0,0,0-2-4.36l.61-.7a6.61,6.61,0,0,1,2.39,5.06A7,7,0,0,1,542.67,138.15Z"/><path class="cls-3" d="M538.69,135.39a2.53,2.53,0,1,1,2.53-2.53A2.52,2.52,0,0,1,538.69,135.39Zm0-4.07a1.59,1.59,0,1,0,1.59,1.59A1.58,1.58,0,0,0,538.69,131.31Z"/><path class="cls-3" d="M532.6,140.82a9.89,9.89,0,0,1-3.93-8,10,10,0,0,1,3.61-7.68l.61.7a9.08,9.08,0,0,0,.28,14.19Z"/><path class="cls-3" d="M544.73,140.82l-.56-.75a9.08,9.08,0,0,0,.28-14.19l.61-.7a10,10,0,0,1,3.61,7.68A9.89,9.89,0,0,1,544.73,140.82Z"/><rect class="cls-1" x="433.6" y="132.36" width="30.13" height="1"/><rect class="cls-1" x="489.24" y="132.36" width="30.13" height="1"/><rect class="cls-1" x="261.82" y="73.75" width="1" height="59.28"/><rect class="cls-1" x="261.82" y="73.75" width="50.17" height="1"/><rect class="cls-1" x="261.82" y="132.03" width="50.17" height="1"/><g id="_Group_" data-name="&lt;Group&gt;"><polygon class="cls-1" points="350.7 82.99 333.2 83 335.7 79.24 353.2 79.24 350.7 82.99"/></g><g id="_Group_2" data-name="&lt;Group&gt;"><g id="_Group_3" data-name="&lt;Group&gt;"><path class="cls-4" d="M346.53,65.52a3.33,3.33,0,1,1-6.66,0v0h-2.92V83h2.92a3.33,3.33,0,1,1,6.66,0h2.92V65.5h-2.92Z"/></g><g id="_Group_4" data-name="&lt;Group&gt;"><circle class="cls-1" cx="343.2" cy="74.25" r="3.74"/></g></g><g id="_Group_5" data-name="&lt;Group&gt;"><rect class="cls-1" x="334.62" y="81.12" width="15.65" height="1.88"/></g><g id="_Group_6" data-name="&lt;Group&gt;"><polygon class="cls-1" points="350.7 114.45 333.2 114.45 335.7 110.7 353.2 110.7 350.7 114.45"/></g><g id="_Group_7" data-name="&lt;Group&gt;"><g id="_Group_8" data-name="&lt;Group&gt;"><path class="cls-4" d="M346.53,97a3.33,3.33,0,1,1-6.66,0v0h-2.92v17.47h2.92a3.33,3.33,0,0,1,6.66,0h2.92V97h-2.92Z"/></g><g id="_Group_9" data-name="&lt;Group&gt;"><circle class="cls-1" cx="343.2" cy="105.71" r="3.74"/></g></g><g id="_Group_10" data-name="&lt;Group&gt;"><rect class="cls-1" x="334.62" y="112.57" width="15.65" height="1.88"/></g><g id="_Group_11" data-name="&lt;Group&gt;"><polygon class="cls-1" points="350.7 141.6 333.2 141.61 335.7 137.85 353.2 137.85 350.7 141.6"/></g><g id="_Group_12" data-name="&lt;Group&gt;"><g id="_Group_13" data-name="&lt;Group&gt;"><path class="cls-4" d="M346.53,124.13a3.33,3.33,0,1,1-6.66,0v0h-2.92v17.47h2.92a3.33,3.33,0,0,1,6.66,0h2.92V124.11h-2.92Z"/></g><g id="_Group_14" data-name="&lt;Group&gt;"><circle class="cls-1" cx="343.2" cy="132.86" r="3.74"/></g></g><g id="_Group_15" data-name="&lt;Group&gt;"><rect class="cls-1" x="334.62" y="139.72" width="15.65" height="1.88"/></g><g id="_Group_16" data-name="&lt;Group&gt;"><path class="cls-1" d="M21.72,90.32h0l1.72.43A11.61,11.61,0,0,1,23.25,89c0-.29,0-.59,0-.91s0-.71,0-1,.06-.83.11-1.17q0-.23.07-.42l-1.73.43c-.21,0-.38,1-.38,2.2S21.52,90.32,21.72,90.32Z"/></g><g id="_Group_17" data-name="&lt;Group&gt;"><path class="cls-5" d="M37.5,95h0l-.08,0Z"/></g><g id="_Group_18" data-name="&lt;Group&gt;"><path class="cls-4" d="M23.26,87.08c0,.33,0,.68,0,1s0,.62,0,.91a11.61,11.61,0,0,0,.19,1.72h0c.1.5.24.8.38.8h0l1.22.31c-.34-.14-.6-1.76-.6-3.74s.26-3.58.6-3.73l-1.22.3h0c-.13.06-.24.34-.34.79q0,.19-.07.42C23.32,86.25,23.28,86.65,23.26,87.08Z"/></g><g id="_Group_19" data-name="&lt;Group&gt;"><polygon class="cls-5" points="25.09 91.87 25.08 91.87 25.09 91.87 25.09 91.87 25.09 91.87"/></g><g id="_Group_20" data-name="&lt;Group&gt;"><polygon class="cls-1" points="26.31 92.18 26.31 94.96 35.06 96.98 35.06 94.37 33.81 94.05 33.81 95.41 27.56 93.97 27.56 92.49 26.31 92.18"/></g><g id="_Group_21" data-name="&lt;Group&gt;"><path class="cls-5" d="M25,84.39h0Z"/></g><g id="_Group_22" data-name="&lt;Group&gt;"><path class="cls-1" d="M24.44,88.12c0,2,.27,3.6.6,3.74h0l1.24.31,1.25.31,6.25,1.56,1.25.31,2.38.6.08,0,2.45.61c-.64-.31-1.15-3.53-1.15-7.47S39.34,81,40,80.65l-.71.18-1.73.43-.09,0L25.09,84.37H25C24.7,84.54,24.44,86.15,24.44,88.12Z"/></g><g id="_Group_23" data-name="&lt;Group&gt;"><path class="cls-4" d="M38.84,88.12c0,3.94.51,7.17,1.15,7.47h0l0,0h.05c.69,0,1.25-3.36,1.25-7.5s-.56-7.5-1.25-7.5H40C39.34,81,38.84,84.19,38.84,88.12Z"/></g><g id="_Group_24" data-name="&lt;Group&gt;"><path class="cls-1" d="M21.72,120.65h0l1.72.43a11.61,11.61,0,0,1-.19-1.72c0-.29,0-.59,0-.91s0-.71,0-1,.06-.83.11-1.17q0-.23.07-.42l-1.73.43c-.21,0-.38,1-.38,2.2S21.52,120.65,21.72,120.65Z"/></g><g id="_Group_25" data-name="&lt;Group&gt;"><path class="cls-5" d="M37.5,125.31h0l-.08,0Z"/></g><g id="_Group_26" data-name="&lt;Group&gt;"><path class="cls-4" d="M23.26,117.42c0,.33,0,.68,0,1s0,.62,0,.91a11.61,11.61,0,0,0,.19,1.72h0c.1.5.24.8.38.8h0l1.22.31c-.34-.14-.6-1.76-.6-3.74s.26-3.58.6-3.73l-1.22.3h0c-.13.06-.24.34-.34.79q0,.19-.07.42C23.32,116.58,23.28,117,23.26,117.42Z"/></g><g id="_Group_27" data-name="&lt;Group&gt;"><polygon class="cls-5" points="25.09 122.2 25.08 122.2 25.09 122.2 25.09 122.2 25.09 122.2"/></g><g id="_Group_28" data-name="&lt;Group&gt;"><polygon class="cls-1" points="26.31 122.51 26.31 125.29 35.06 127.31 35.06 124.7 33.81 124.39 33.81 125.74 27.56 124.3 27.56 122.83 26.31 122.51"/></g><g id="_Group_29" data-name="&lt;Group&gt;"><path class="cls-5" d="M25,114.72h0Z"/></g><g id="_Group_30" data-name="&lt;Group&gt;"><path class="cls-1" d="M24.44,118.45c0,2,.27,3.6.6,3.74h0l1.24.31,1.25.31,6.25,1.56,1.25.31,2.38.6.08,0,2.45.61c-.64-.31-1.15-3.53-1.15-7.47s.5-7.15,1.15-7.47l-.71.18-1.73.43-.09,0-12.36,3.09H25C24.7,114.87,24.44,116.48,24.44,118.45Z"/></g><g id="_Group_31" data-name="&lt;Group&gt;"><path class="cls-4" d="M38.84,118.45c0,3.94.51,7.17,1.15,7.47h0l0,0h.05c.69,0,1.25-3.36,1.25-7.5s-.56-7.5-1.25-7.5H40C39.34,111.3,38.84,114.52,38.84,118.45Z"/></g><rect class="cls-1" x="71.59" y="162.65" width="80.5" height="12.25"/><path class="cls-1" d="M24.17,165h2a2.38,2.38,0,0,1,1.74.54,1.93,1.93,0,0,1,.53,1.42,1.8,1.8,0,0,1-.1.59,2.06,2.06,0,0,1-.28.54,1.94,1.94,0,0,1-.44.44,1.64,1.64,0,0,1-.58.26l1.58,3.06H27.8l-1.52-3H25v3h-.79Zm.79.73v2.42h1.33a1.47,1.47,0,0,0,1.06-.32,1.16,1.16,0,0,0,.33-.86,1.3,1.3,0,0,0-.09-.48,1.19,1.19,0,0,0-.25-.38,1.13,1.13,0,0,0-.42-.26,1.8,1.8,0,0,0-.63-.1Z"/><path class="cls-1" d="M31.9,166.71a2.13,2.13,0,0,1,.77.14,1.77,1.77,0,0,1,.65.43,2.15,2.15,0,0,1,.45.74,3,3,0,0,1,.17,1.07c0,.06,0,.12,0,.18s0,.12,0,.18H30.35a2.38,2.38,0,0,0,.18.89,1.71,1.71,0,0,0,.4.58,1.44,1.44,0,0,0,.54.31,2,2,0,0,0,.59.09,1.7,1.7,0,0,0,1.3-.56l.44.43A2.16,2.16,0,0,1,32,172a2.86,2.86,0,0,1-1-.17,2.05,2.05,0,0,1-.78-.5,2.26,2.26,0,0,1-.5-.82,3.63,3.63,0,0,1,0-2.25,2.42,2.42,0,0,1,.5-.83,2.12,2.12,0,0,1,.73-.51A2.31,2.31,0,0,1,31.9,166.71Zm-1.52,2.11h2.76a.54.54,0,0,1,0-.08.61.61,0,0,0,0-.09,1.28,1.28,0,0,0-.11-.51,1.33,1.33,0,0,0-.28-.42,1.39,1.39,0,0,0-.41-.29,1.22,1.22,0,0,0-.51-.11,1.39,1.39,0,0,0-.94.36A1.78,1.78,0,0,0,30.38,168.82Z"/><path class="cls-1" d="M38.67,167.57v-.74h.75v6.86h-.79v-2.64a1.75,1.75,0,0,1-.65.67,1.73,1.73,0,0,1-.89.25,1.75,1.75,0,0,1-.81-.19,2,2,0,0,1-.66-.54,2.65,2.65,0,0,1-.44-.85,3.6,3.6,0,0,1-.16-1.1,3.13,3.13,0,0,1,.18-1.08,2.48,2.48,0,0,1,.48-.81,2,2,0,0,1,.7-.51,2.11,2.11,0,0,1,.85-.18,1.48,1.48,0,0,1,1.36.74A.49.49,0,0,1,38.67,167.57Zm-1.45-.23a1.28,1.28,0,0,0-.54.12,1.26,1.26,0,0,0-.45.35,1.73,1.73,0,0,0-.31.59,2.68,2.68,0,0,0-.12.83,3,3,0,0,0,.12.87,2,2,0,0,0,.31.64,1.39,1.39,0,0,0,.46.4,1.24,1.24,0,0,0,1.55-.34,2.56,2.56,0,0,0,.36-1.53,2.3,2.3,0,0,0-.37-1.51A1.28,1.28,0,0,0,37.22,167.34Z"/><path class="cls-1" d="M40.75,166.83h.79v2.8a3.14,3.14,0,0,0,.09.81,1.4,1.4,0,0,0,.25.52,1,1,0,0,0,.37.29,1.11,1.11,0,0,0,.45.09,1.54,1.54,0,0,0,.51-.13,1.38,1.38,0,0,0,.44-.31,1.43,1.43,0,0,0,.3-.52,2.35,2.35,0,0,0,.11-.77v-2.77h.79v4.58a1.66,1.66,0,0,0,.05.45h-.82c0-.05,0-.11,0-.17a1,1,0,0,1,0-.21v-.38a1.75,1.75,0,0,1-.66.65,1.8,1.8,0,0,1-.91.24,1.69,1.69,0,0,1-.7-.14,1.59,1.59,0,0,1-.56-.42,1.92,1.92,0,0,1-.37-.73,3.86,3.86,0,0,1-.13-1.06Z"/><path class="cls-1" d="M46.72,166.83h2v4.39h1.18v.64H46.65v-.64h1.29v-3.75H46.72Zm1.23-2a.54.54,0,0,1,.4-.16.58.58,0,0,1,.57.57.53.53,0,0,1-.17.4.55.55,0,0,1-.4.17.56.56,0,0,1-.56-.56A.56.56,0,0,1,48,164.81Z"/><path class="cls-1" d="M52.14,166.83H53l0,1a1.68,1.68,0,0,1,.73-.81,2.17,2.17,0,0,1,1.08-.28,1.79,1.79,0,0,1,1.35.55l-.36.76-.22-.28a1.2,1.2,0,0,0-.21-.19,1,1,0,0,0-.26-.12,1.11,1.11,0,0,0-.34,0,1.45,1.45,0,0,0-.69.17,1.88,1.88,0,0,0-.56.45,2.29,2.29,0,0,0-.38.64,2.05,2.05,0,0,0-.14.76v2.45h-.79Z"/><path class="cls-1" d="M59.4,166.71a2.13,2.13,0,0,1,.77.14,1.77,1.77,0,0,1,.65.43,2.15,2.15,0,0,1,.45.74,3,3,0,0,1,.17,1.07c0,.06,0,.12,0,.18s0,.12,0,.18H57.85a2.38,2.38,0,0,0,.18.89,1.71,1.71,0,0,0,.4.58,1.44,1.44,0,0,0,.54.31,2,2,0,0,0,.59.09,1.7,1.7,0,0,0,1.3-.56l.44.43a2.16,2.16,0,0,1-1.76.77,2.86,2.86,0,0,1-1-.17,2.05,2.05,0,0,1-.78-.5,2.26,2.26,0,0,1-.5-.82,3.63,3.63,0,0,1,0-2.25,2.42,2.42,0,0,1,.5-.83,2.12,2.12,0,0,1,.73-.51A2.31,2.31,0,0,1,59.4,166.71Zm-1.52,2.11h2.76a.54.54,0,0,1,0-.08.61.61,0,0,0,0-.09,1.28,1.28,0,0,0-.11-.51,1.33,1.33,0,0,0-.28-.42,1.39,1.39,0,0,0-.41-.29,1.22,1.22,0,0,0-.51-.11,1.39,1.39,0,0,0-.94.36A1.78,1.78,0,0,0,57.88,168.82Z"/><path class="cls-1" d="M66.12,167.57v-3H67a.27.27,0,0,1-.05.15.28.28,0,0,0-.05.16v6.54a1.7,1.7,0,0,0,.05.46h-.8a1.23,1.23,0,0,1,0-.37v-.43a1.82,1.82,0,0,1-.66.67,1.64,1.64,0,0,1-.84.25,1.9,1.9,0,0,1-.78-.17,1.83,1.83,0,0,1-.65-.49,2.48,2.48,0,0,1-.44-.83,3.8,3.8,0,0,1-.16-1.18,3.32,3.32,0,0,1,.19-1.18,2.35,2.35,0,0,1,.49-.8,1.91,1.91,0,0,1,.67-.46,2,2,0,0,1,.76-.15,1.67,1.67,0,0,1,.9.24A1.48,1.48,0,0,1,66.12,167.57Zm-2.32.14a1.92,1.92,0,0,0-.47,1.46,2.86,2.86,0,0,0,.36,1.53,1.16,1.16,0,0,0,1.05.58,1.13,1.13,0,0,0,.35-.06,1.24,1.24,0,0,0,.35-.18,1.65,1.65,0,0,0,.29-.29,1.18,1.18,0,0,0,.2-.38,3.77,3.77,0,0,0,.12-1.06,6.34,6.34,0,0,0,0-.7,2.33,2.33,0,0,0-.1-.48,1,1,0,0,0-.18-.33,1.14,1.14,0,0,0-.27-.23,1.93,1.93,0,0,0-.37-.18,1,1,0,0,0-.32-.06,1.47,1.47,0,0,0-.54.09A1.48,1.48,0,0,0,63.81,167.71Z"/><path class="cls-4" d="M73.39,165h4.76v.69h-2v6.17h-.79v-6.17H73.39Z"/><path class="cls-4" d="M79.32,171.86v-7.31h.91a.19.19,0,0,1,0,.09.36.36,0,0,0-.07.15v2.92a2.36,2.36,0,0,1,.74-.74,1.73,1.73,0,0,1,.91-.27,1.63,1.63,0,0,1,.62.12,1.25,1.25,0,0,1,.49.37,1.71,1.71,0,0,1,.32.65,3.63,3.63,0,0,1,.11,1v3h-.79v-3a1.75,1.75,0,0,0-.27-1.11.83.83,0,0,0-.65-.32,1.27,1.27,0,0,0-.51.11,2,2,0,0,0-.49.31,1.32,1.32,0,0,0-.36.48,1.63,1.63,0,0,0-.13.66v2.89Z"/><path class="cls-4" d="M85.14,166.83H86l0,1a1.68,1.68,0,0,1,.73-.81,2.17,2.17,0,0,1,1.08-.28,1.79,1.79,0,0,1,1.35.55l-.36.76-.22-.28a1.2,1.2,0,0,0-.21-.19,1,1,0,0,0-.26-.12,1.11,1.11,0,0,0-.34,0,1.45,1.45,0,0,0-.69.17,1.88,1.88,0,0,0-.56.45,2.29,2.29,0,0,0-.38.64,2.05,2.05,0,0,0-.14.76v2.45h-.79Z"/><path class="cls-4" d="M92.4,166.71a2.13,2.13,0,0,1,.77.14,1.77,1.77,0,0,1,.65.43,2.15,2.15,0,0,1,.45.74,3,3,0,0,1,.17,1.07c0,.06,0,.12,0,.18s0,.12,0,.18H90.85a2.38,2.38,0,0,0,.18.89,1.71,1.71,0,0,0,.4.58,1.44,1.44,0,0,0,.54.31,2,2,0,0,0,.59.09,1.7,1.7,0,0,0,1.3-.56l.44.43a2.16,2.16,0,0,1-1.76.77,2.86,2.86,0,0,1-1-.17,2.05,2.05,0,0,1-.78-.5,2.26,2.26,0,0,1-.5-.82,3.63,3.63,0,0,1,0-2.25,2.42,2.42,0,0,1,.5-.83,2.12,2.12,0,0,1,.73-.51A2.31,2.31,0,0,1,92.4,166.71Zm-1.52,2.11h2.76a.54.54,0,0,1,0-.08.61.61,0,0,0,0-.09,1.28,1.28,0,0,0-.11-.51,1.33,1.33,0,0,0-.28-.42,1.39,1.39,0,0,0-.41-.29,1.22,1.22,0,0,0-.51-.11,1.39,1.39,0,0,0-.94.36A1.78,1.78,0,0,0,90.88,168.82Z"/><path class="cls-4" d="M99.8,167.5l-.46.69s-.06,0-.06-.09a.2.2,0,0,0,0-.11,2,2,0,0,0-.57-.47,1.62,1.62,0,0,0-.83-.21,1.66,1.66,0,0,0-.4,0,1.3,1.3,0,0,0-.34.14.7.7,0,0,0-.24.23.56.56,0,0,0-.09.31.43.43,0,0,0,.07.24.74.74,0,0,0,.21.2,1.9,1.9,0,0,0,.4.2c.17.07.4.14.68.22a3.44,3.44,0,0,1,1.35.6,1.1,1.1,0,0,1,.39.85,1.43,1.43,0,0,1-.14.63,1.5,1.5,0,0,1-.42.52,2.08,2.08,0,0,1-.66.35,2.79,2.79,0,0,1-.87.13,3,3,0,0,1-2.12-.79l.45-.79a.2.2,0,0,1,0,.11.47.47,0,0,0,.08.17,1,1,0,0,0,.24.23,3.07,3.07,0,0,0,.54.29,1.42,1.42,0,0,0,.38.11,2.79,2.79,0,0,0,.42,0,1.89,1.89,0,0,0,.45-.06,1.59,1.59,0,0,0,.41-.16,1,1,0,0,0,.29-.25.55.55,0,0,0,.11-.34.59.59,0,0,0-.27-.49,3.37,3.37,0,0,0-1-.41l-.64-.2a3.29,3.29,0,0,1-.58-.27,1.64,1.64,0,0,1-.32-.28,1.33,1.33,0,0,1-.23-.36,1.12,1.12,0,0,1-.09-.45,1,1,0,0,1,.14-.51,1.44,1.44,0,0,1,.4-.43,2.22,2.22,0,0,1,.62-.3,2.47,2.47,0,0,1,.78-.12A2.4,2.4,0,0,1,99.8,167.5Z"/><path class="cls-4" d="M101.32,171.86v-7.31h.91a.19.19,0,0,1,0,.09.36.36,0,0,0-.07.15v2.92a2.36,2.36,0,0,1,.74-.74,1.73,1.73,0,0,1,.91-.27,1.63,1.63,0,0,1,.62.12,1.25,1.25,0,0,1,.49.37,1.71,1.71,0,0,1,.32.65,3.63,3.63,0,0,1,.11,1v3h-.79v-3a1.75,1.75,0,0,0-.27-1.11.83.83,0,0,0-.65-.32,1.27,1.27,0,0,0-.51.11,2,2,0,0,0-.49.31,1.32,1.32,0,0,0-.36.48,1.63,1.63,0,0,0-.13.66v2.89Z"/><path class="cls-4" d="M108.85,166.72a2.15,2.15,0,0,1,.88.18,2.11,2.11,0,0,1,.72.52,2.55,2.55,0,0,1,.49.83,3.13,3.13,0,0,1,.18,1.09,3.2,3.2,0,0,1-.18,1.1,2.55,2.55,0,0,1-.48.83,2,2,0,0,1-.73.53,2.2,2.2,0,0,1-.89.18,2.11,2.11,0,0,1-.91-.2,2.36,2.36,0,0,1-.74-.54,2.59,2.59,0,0,1-.51-.83,3,3,0,0,1,0-2.1,2.58,2.58,0,0,1,.52-.84,2.48,2.48,0,0,1,.75-.55A2.06,2.06,0,0,1,108.85,166.72Zm1.47,2.65a2.6,2.6,0,0,0-.12-.84,2,2,0,0,0-.34-.62,1.44,1.44,0,0,0-.48-.38,1.29,1.29,0,0,0-1.13,0,1.39,1.39,0,0,0-.47.38,2,2,0,0,0-.32.61,2.74,2.74,0,0,0,0,1.61,2.07,2.07,0,0,0,.32.63,1.43,1.43,0,0,0,.48.41,1.25,1.25,0,0,0,.58.14,1.33,1.33,0,0,0,1.05-.5,1.82,1.82,0,0,0,.32-.61A2.69,2.69,0,0,0,110.32,169.37Z"/><path class="cls-4" d="M112.49,164.54h2.21v6.68h1.47v.64h-3.75v-.64h1.48v-6h-1.42Z"/><path class="cls-4" d="M121.12,167.57v-3H122a.27.27,0,0,1-.05.15.28.28,0,0,0-.05.16v6.54a1.7,1.7,0,0,0,.05.46h-.8a1.23,1.23,0,0,1,0-.37v-.43a1.82,1.82,0,0,1-.66.67,1.64,1.64,0,0,1-.84.25,1.9,1.9,0,0,1-.78-.17,1.83,1.83,0,0,1-.65-.49,2.48,2.48,0,0,1-.44-.83,3.8,3.8,0,0,1-.16-1.18,3.32,3.32,0,0,1,.19-1.18,2.35,2.35,0,0,1,.49-.8,1.91,1.91,0,0,1,.67-.46,2,2,0,0,1,.76-.15,1.67,1.67,0,0,1,.9.24A1.48,1.48,0,0,1,121.12,167.57Zm-2.32.14a1.92,1.92,0,0,0-.47,1.46,2.86,2.86,0,0,0,.36,1.53,1.16,1.16,0,0,0,1.05.58,1.13,1.13,0,0,0,.35-.06,1.24,1.24,0,0,0,.35-.18,1.65,1.65,0,0,0,.29-.29,1.18,1.18,0,0,0,.2-.38,3.77,3.77,0,0,0,.12-1.06,6.34,6.34,0,0,0,0-.7,2.33,2.33,0,0,0-.1-.48,1,1,0,0,0-.18-.33,1.14,1.14,0,0,0-.27-.23,1.93,1.93,0,0,0-.37-.18,1,1,0,0,0-.32-.06,1.47,1.47,0,0,0-.54.09A1.48,1.48,0,0,0,118.81,167.71Z"/><path class="cls-4" d="M127.3,167.5l-.46.69s-.06,0-.06-.09a.2.2,0,0,0,0-.11,2,2,0,0,0-.57-.47,1.62,1.62,0,0,0-.83-.21,1.66,1.66,0,0,0-.4,0,1.3,1.3,0,0,0-.34.14.7.7,0,0,0-.24.23.56.56,0,0,0-.09.31.43.43,0,0,0,.07.24.74.74,0,0,0,.21.2,1.9,1.9,0,0,0,.4.2c.17.07.4.14.68.22a3.44,3.44,0,0,1,1.35.6,1.1,1.1,0,0,1,.39.85,1.43,1.43,0,0,1-.14.63,1.5,1.5,0,0,1-.42.52,2.08,2.08,0,0,1-.66.35,2.79,2.79,0,0,1-.87.13,3,3,0,0,1-2.12-.79l.45-.79a.2.2,0,0,1,0,.11.47.47,0,0,0,.08.17,1,1,0,0,0,.24.23,3.07,3.07,0,0,0,.54.29,1.42,1.42,0,0,0,.38.11,2.79,2.79,0,0,0,.42,0,1.89,1.89,0,0,0,.45-.06,1.59,1.59,0,0,0,.41-.16,1,1,0,0,0,.29-.25.55.55,0,0,0,.11-.34.59.59,0,0,0-.27-.49,3.37,3.37,0,0,0-1-.41l-.64-.2a3.29,3.29,0,0,1-.58-.27,1.64,1.64,0,0,1-.32-.28,1.33,1.33,0,0,1-.23-.36,1.12,1.12,0,0,1-.09-.45,1,1,0,0,1,.14-.51,1.44,1.44,0,0,1,.4-.43,2.22,2.22,0,0,1,.62-.3,2.47,2.47,0,0,1,.78-.12A2.4,2.4,0,0,1,127.3,167.5Z"/><path class="cls-4" d="M138.3,165.43q-.69,1.58-1.29,3.18t-1.11,3.24H135q.53-1.57,1.1-3.09t1.21-3h-2.93V165h3.88Z"/><path class="cls-4" d="M140.22,165h3.48v.69h-2.83l-.11,2a2.52,2.52,0,0,1,1.12-.26,2.08,2.08,0,0,1,.82.16,1.88,1.88,0,0,1,.66.46,2.14,2.14,0,0,1,.44.73,2.8,2.8,0,0,1,.15,1,2.62,2.62,0,0,1-.16,1,2.09,2.09,0,0,1-.46.72,1.92,1.92,0,0,1-.68.45,2.28,2.28,0,0,1-.85.15,2.52,2.52,0,0,1-1.16-.27,2.32,2.32,0,0,1-.87-.78l.68-.51a.15.15,0,0,1,.06.13.43.43,0,0,0,0,.12,1,1,0,0,0,.15.19,1.39,1.39,0,0,0,.28.21,1.94,1.94,0,0,0,.39.17,1.58,1.58,0,0,0,.49.07,1.15,1.15,0,0,0,.5-.12,1.25,1.25,0,0,0,.42-.33,1.61,1.61,0,0,0,.29-.51,2.22,2.22,0,0,0,0-1.37,1.51,1.51,0,0,0-.3-.51,1.31,1.31,0,0,0-.44-.32,1.37,1.37,0,0,0-.55-.11,1.53,1.53,0,0,0-.69.17,1.82,1.82,0,0,0-.59.48l-.48-.2Z"/><path class="cls-4" d="M144.86,166.32a1.57,1.57,0,0,1,.1-.56,1.44,1.44,0,0,1,.26-.46,1.19,1.19,0,0,1,.39-.3,1.09,1.09,0,0,1,1,0,1.19,1.19,0,0,1,.39.31,1.61,1.61,0,0,1,.26.46,1.58,1.58,0,0,1,.1.56,1.51,1.51,0,0,1-.35,1,1.12,1.12,0,0,1-.88.4,1.06,1.06,0,0,1-.48-.11,1.18,1.18,0,0,1-.39-.3,1.42,1.42,0,0,1-.26-.46A1.6,1.6,0,0,1,144.86,166.32Zm4-1.31h.74l-3.83,6.85h-.71Zm-2.22,1.31a1,1,0,0,0-.18-.67.52.52,0,0,0-.39-.19.5.5,0,0,0-.37.19,1,1,0,0,0-.17.67,1,1,0,0,0,.18.67.52.52,0,0,0,.39.2.49.49,0,0,0,.38-.19A1,1,0,0,0,146.63,166.32Zm2,2.8a1.09,1.09,0,0,1,.48.11,1.19,1.19,0,0,1,.39.31,1.52,1.52,0,0,1,.26.46,1.61,1.61,0,0,1,.09.55,1.57,1.57,0,0,1-.1.56,1.44,1.44,0,0,1-.26.45,1.23,1.23,0,0,1-.38.3,1,1,0,0,1-.47.11,1.06,1.06,0,0,1-.48-.11,1.21,1.21,0,0,1-.39-.3,1.37,1.37,0,0,1-.26-.45,1.63,1.63,0,0,1,0-1.12,1.46,1.46,0,0,1,.26-.46,1.22,1.22,0,0,1,.39-.3A1.09,1.09,0,0,1,148.63,169.12Zm.38.78a.53.53,0,0,0-.39-.21.51.51,0,0,0-.39.19,1.3,1.3,0,0,0,0,1.31.54.54,0,0,0,.4.2.49.49,0,0,0,.38-.21,1.28,1.28,0,0,0,0-1.29Z"/><rect class="cls-1" x="382.5" y="165.73" width="63.63" height="12.25"/><path class="cls-1" d="M334.57,168.09h2a2.38,2.38,0,0,1,1.74.54,1.93,1.93,0,0,1,.53,1.42,1.84,1.84,0,0,1-.1.59,2.1,2.1,0,0,1-.28.54,1.94,1.94,0,0,1-.44.44,1.62,1.62,0,0,1-.58.26l1.58,3.06h-.86l-1.52-3h-1.32v3h-.79Zm.79.73v2.42h1.33a1.47,1.47,0,0,0,1.06-.33,1.16,1.16,0,0,0,.33-.86,1.29,1.29,0,0,0-.09-.48,1.19,1.19,0,0,0-.25-.39,1.12,1.12,0,0,0-.42-.26,1.8,1.8,0,0,0-.64-.1Z"/><path class="cls-1" d="M342.3,169.79a2.15,2.15,0,0,1,.77.14,1.77,1.77,0,0,1,.65.44,2.14,2.14,0,0,1,.45.74,3,3,0,0,1,.17,1.07c0,.06,0,.12,0,.18s0,.12,0,.18h-3.58a2.42,2.42,0,0,0,.18.88,1.7,1.7,0,0,0,.4.58,1.42,1.42,0,0,0,.54.31,2,2,0,0,0,.59.09,1.69,1.69,0,0,0,1.3-.56l.44.43a2.16,2.16,0,0,1-1.76.77,2.87,2.87,0,0,1-1-.17,2.08,2.08,0,0,1-.78-.5,2.25,2.25,0,0,1-.5-.82,3.63,3.63,0,0,1,0-2.25,2.42,2.42,0,0,1,.5-.83,2.11,2.11,0,0,1,.73-.51A2.3,2.3,0,0,1,342.3,169.79Zm-1.52,2.11h2.76a.52.52,0,0,1,0-.08.64.64,0,0,0,0-.09,1.28,1.28,0,0,0-.1-.51,1.35,1.35,0,0,0-.69-.71,1.21,1.21,0,0,0-.51-.11,1.39,1.39,0,0,0-.93.36A1.78,1.78,0,0,0,340.78,171.9Z"/><path class="cls-1" d="M349.06,170.65v-.74h.75v6.86H349v-2.64a1.74,1.74,0,0,1-.65.67,1.71,1.71,0,0,1-.89.25,1.77,1.77,0,0,1-.81-.19,2,2,0,0,1-.66-.54,2.65,2.65,0,0,1-.44-.85,3.57,3.57,0,0,1-.16-1.1,3.13,3.13,0,0,1,.18-1.08,2.5,2.5,0,0,1,.48-.81,2.06,2.06,0,0,1,.7-.51,2.1,2.1,0,0,1,.85-.18,1.48,1.48,0,0,1,1.36.74A.48.48,0,0,1,349.06,170.65Zm-1.45-.23a1.31,1.31,0,0,0-.54.12,1.28,1.28,0,0,0-.45.35,1.75,1.75,0,0,0-.31.59,2.73,2.73,0,0,0-.12.83,3,3,0,0,0,.12.87,2.06,2.06,0,0,0,.31.65,1.39,1.39,0,0,0,.46.4,1.25,1.25,0,0,0,1.55-.34,2.57,2.57,0,0,0,.36-1.53,2.3,2.3,0,0,0-.37-1.5A1.28,1.28,0,0,0,347.62,170.42Z"/><path class="cls-1" d="M351.14,169.91h.79v2.8a3.15,3.15,0,0,0,.09.81,1.39,1.39,0,0,0,.25.52,1,1,0,0,0,.36.29,1.12,1.12,0,0,0,.45.09,1.54,1.54,0,0,0,.51-.13A1.39,1.39,0,0,0,354,174a1.44,1.44,0,0,0,.3-.52,2.38,2.38,0,0,0,.11-.77v-2.77h.79v4.58a1.68,1.68,0,0,0,.05.45h-.83l0-.17a1,1,0,0,1,0-.21v-.39a1.76,1.76,0,0,1-.66.65,1.81,1.81,0,0,1-.91.24,1.69,1.69,0,0,1-.7-.14,1.59,1.59,0,0,1-.56-.42,1.9,1.9,0,0,1-.37-.73,3.87,3.87,0,0,1-.13-1.06Z"/><path class="cls-1" d="M357.12,169.91h2v4.39h1.18v.64H357v-.64h1.29v-3.75h-1.22Zm1.23-2a.53.53,0,0,1,.4-.17.58.58,0,0,1,.57.57.53.53,0,0,1-.17.4.56.56,0,0,1-.4.16.56.56,0,0,1-.56-.56A.55.55,0,0,1,358.35,167.89Z"/><path class="cls-1" d="M362.54,169.91h.81l0,1a1.67,1.67,0,0,1,.73-.81,2.18,2.18,0,0,1,1.08-.28,1.79,1.79,0,0,1,1.35.55l-.36.76-.22-.27a1.13,1.13,0,0,0-.21-.19,1,1,0,0,0-.25-.12,1.12,1.12,0,0,0-.34,0,1.43,1.43,0,0,0-.68.17,1.91,1.91,0,0,0-.56.45,2.3,2.3,0,0,0-.38.64,2,2,0,0,0-.14.76V175h-.79Z"/><path class="cls-1" d="M369.8,169.79a2.15,2.15,0,0,1,.77.14,1.77,1.77,0,0,1,.65.44,2.14,2.14,0,0,1,.45.74,3,3,0,0,1,.17,1.07c0,.06,0,.12,0,.18s0,.12,0,.18h-3.58a2.42,2.42,0,0,0,.18.88,1.7,1.7,0,0,0,.4.58,1.42,1.42,0,0,0,.54.31,2,2,0,0,0,.59.09,1.69,1.69,0,0,0,1.3-.56l.44.43a2.16,2.16,0,0,1-1.76.77,2.87,2.87,0,0,1-1-.17,2.08,2.08,0,0,1-.78-.5,2.25,2.25,0,0,1-.5-.82,3.63,3.63,0,0,1,0-2.25,2.42,2.42,0,0,1,.5-.83,2.11,2.11,0,0,1,.73-.51A2.3,2.3,0,0,1,369.8,169.79Zm-1.52,2.11H371a.52.52,0,0,1,0-.08.64.64,0,0,0,0-.09,1.28,1.28,0,0,0-.1-.51,1.35,1.35,0,0,0-.69-.71,1.21,1.21,0,0,0-.51-.11,1.39,1.39,0,0,0-.93.36A1.78,1.78,0,0,0,368.28,171.9Z"/><path class="cls-1" d="M376.52,170.65v-3h.86a.28.28,0,0,1-.05.15.29.29,0,0,0-.06.16v6.54a1.77,1.77,0,0,0,.05.46h-.8a1.21,1.21,0,0,1,0-.37v-.43a1.82,1.82,0,0,1-.66.67,1.63,1.63,0,0,1-.84.25,1.88,1.88,0,0,1-.78-.17,1.82,1.82,0,0,1-.65-.5,2.46,2.46,0,0,1-.44-.83,3.81,3.81,0,0,1-.16-1.18,3.31,3.31,0,0,1,.19-1.18,2.34,2.34,0,0,1,.49-.8,1.92,1.92,0,0,1,.67-.46,2.06,2.06,0,0,1,.76-.15,1.68,1.68,0,0,1,.9.24A1.47,1.47,0,0,1,376.52,170.65Zm-2.32.14a1.91,1.91,0,0,0-.47,1.46,2.87,2.87,0,0,0,.36,1.53,1.16,1.16,0,0,0,1.05.58,1.1,1.1,0,0,0,.35-.06,1.2,1.2,0,0,0,.35-.18,1.51,1.51,0,0,0,.29-.29,1.15,1.15,0,0,0,.2-.37,3.81,3.81,0,0,0,.12-1.06,6.34,6.34,0,0,0,0-.7,2.24,2.24,0,0,0-.1-.48,1,1,0,0,0-.18-.33,1.14,1.14,0,0,0-.27-.23,2.07,2.07,0,0,0-.36-.18,1,1,0,0,0-.32-.06,1.47,1.47,0,0,0-.54.09A1.45,1.45,0,0,0,374.2,170.79Z"/><path class="cls-4" d="M388.63,171.52a4.78,4.78,0,0,1-.51,2.4,2.23,2.23,0,0,1-1.51,1.1,1.12,1.12,0,0,0,.19.59.73.73,0,0,0,.63.23h.18l.26,0,.27,0h.18l0,.75h-.43a6.22,6.22,0,0,1-.91-.05,1.14,1.14,0,0,1-.59-.25,1.12,1.12,0,0,1-.32-.49,2.24,2.24,0,0,1-.1-.72,2,2,0,0,1-.8-.29,2.42,2.42,0,0,1-.69-.67A3.39,3.39,0,0,1,384,173a5.21,5.21,0,0,1-.18-1.46,5.29,5.29,0,0,1,.24-1.72,3.06,3.06,0,0,1,.6-1.08,2.22,2.22,0,0,1,.79-.57,2.15,2.15,0,0,1,.81-.18,2.17,2.17,0,0,1,.91.2,2.24,2.24,0,0,1,.79.63,2.91,2.91,0,0,1,.54,1.08A6,6,0,0,1,388.63,171.52Zm-3.54-2.23a3.14,3.14,0,0,0-.57,2.1,5.73,5.73,0,0,0,.12,1.2,3.11,3.11,0,0,0,.34.92,1.78,1.78,0,0,0,.56.6,1.3,1.3,0,0,0,.73.22,1.32,1.32,0,0,0,.57-.14,1.47,1.47,0,0,0,.53-.45,2.39,2.39,0,0,0,.38-.81,4.51,4.51,0,0,0,.14-1.23,6.08,6.08,0,0,0-.15-1.51,2.4,2.4,0,0,0-.42-.91,1.55,1.55,0,0,0-.56-.46,1.36,1.36,0,0,0-.55-.13,1.21,1.21,0,0,0-.62.17A2,2,0,0,0,385.09,169.29Z"/><path class="cls-4" d="M389.64,169.91h.79v2.8a3.15,3.15,0,0,0,.09.81,1.39,1.39,0,0,0,.25.52,1,1,0,0,0,.36.29,1.12,1.12,0,0,0,.45.09,1.54,1.54,0,0,0,.51-.13,1.39,1.39,0,0,0,.44-.31,1.44,1.44,0,0,0,.3-.52,2.38,2.38,0,0,0,.11-.77v-2.77h.79v4.58a1.68,1.68,0,0,0,.05.45H393l0-.17a1,1,0,0,1,0-.21v-.39a1.76,1.76,0,0,1-.66.65,1.81,1.81,0,0,1-.91.24,1.69,1.69,0,0,1-.7-.14,1.59,1.59,0,0,1-.56-.42,1.9,1.9,0,0,1-.37-.73,3.87,3.87,0,0,1-.13-1.06Z"/><path class="cls-4" d="M397.24,169.8a2.15,2.15,0,0,1,.88.18,2.11,2.11,0,0,1,.72.52,2.55,2.55,0,0,1,.49.83,3.16,3.16,0,0,1,.18,1.1,3.21,3.21,0,0,1-.18,1.1,2.54,2.54,0,0,1-.48.83,2.08,2.08,0,0,1-.73.53,2.22,2.22,0,0,1-.89.18,2.1,2.1,0,0,1-.91-.2,2.36,2.36,0,0,1-.74-.54,2.59,2.59,0,0,1-.51-.83,3,3,0,0,1,0-2.1,2.59,2.59,0,0,1,.52-.84,2.45,2.45,0,0,1,.75-.55A2,2,0,0,1,397.24,169.8Zm1.47,2.65a2.6,2.6,0,0,0-.13-.84,2,2,0,0,0-.34-.62,1.43,1.43,0,0,0-.48-.38,1.27,1.27,0,0,0-1.13,0,1.38,1.38,0,0,0-.47.38,2,2,0,0,0-.32.61,2.74,2.74,0,0,0,0,1.61,2.09,2.09,0,0,0,.32.63,1.44,1.44,0,0,0,.48.41,1.24,1.24,0,0,0,.58.14,1.35,1.35,0,0,0,.58-.13,1.38,1.38,0,0,0,.47-.37,1.84,1.84,0,0,0,.32-.61A2.71,2.71,0,0,0,398.72,172.45Z"/><path class="cls-4" d="M401,169.91h.81l0,1a1.67,1.67,0,0,1,.73-.81,2.18,2.18,0,0,1,1.08-.28,1.79,1.79,0,0,1,1.35.55l-.36.76-.22-.27a1.13,1.13,0,0,0-.21-.19,1,1,0,0,0-.25-.12,1.12,1.12,0,0,0-.34,0,1.43,1.43,0,0,0-.68.17,1.91,1.91,0,0,0-.56.45,2.3,2.3,0,0,0-.38.64,2,2,0,0,0-.14.76V175H401Z"/><path class="cls-4" d="M406.14,169.91h.79v2.8a3.15,3.15,0,0,0,.09.81,1.39,1.39,0,0,0,.25.52,1,1,0,0,0,.36.29,1.12,1.12,0,0,0,.45.09,1.54,1.54,0,0,0,.51-.13A1.39,1.39,0,0,0,409,174a1.44,1.44,0,0,0,.3-.52,2.38,2.38,0,0,0,.11-.77v-2.77h.79v4.58a1.68,1.68,0,0,0,.05.45h-.83l0-.17a1,1,0,0,1,0-.21v-.39a1.76,1.76,0,0,1-.66.65,1.81,1.81,0,0,1-.91.24,1.69,1.69,0,0,1-.7-.14,1.59,1.59,0,0,1-.56-.42,1.9,1.9,0,0,1-.37-.73,3.87,3.87,0,0,1-.13-1.06Z"/><path class="cls-4" d="M411.37,174.94v-5h.73v.49a1.42,1.42,0,0,1,.45-.45,1.09,1.09,0,0,1,.58-.17.86.86,0,0,1,.57.21.91.91,0,0,1,.31.53,1.22,1.22,0,0,1,.45-.53,1.2,1.2,0,0,1,.67-.2.84.84,0,0,1,.76.37,1.52,1.52,0,0,1,.22.92v3.86h-.73v-3.56a3.53,3.53,0,0,0,0-.54.73.73,0,0,0-.11-.3.36.36,0,0,0-.15-.13.59.59,0,0,0-.2,0,.45.45,0,0,0-.29.12,1.16,1.16,0,0,0-.25.29,1.57,1.57,0,0,0-.18.4,1.54,1.54,0,0,0-.07.43v3.32h-.74v-3.5a2,2,0,0,0-.12-.84.42.42,0,0,0-.4-.21.68.68,0,0,0-.51.31,1.38,1.38,0,0,0-.25.88v3.36Z"/><path class="cls-4" d="M421.2,170.58l-.46.69s-.06,0-.06-.09a.19.19,0,0,0,0-.11,2,2,0,0,0-.57-.47,1.61,1.61,0,0,0-.83-.21,1.63,1.63,0,0,0-.41,0,1.32,1.32,0,0,0-.34.14.7.7,0,0,0-.24.23.56.56,0,0,0-.09.31.43.43,0,0,0,.07.24.75.75,0,0,0,.21.2,2,2,0,0,0,.4.2q.26.1.68.22a3.39,3.39,0,0,1,1.35.6,1.09,1.09,0,0,1,.39.85,1.43,1.43,0,0,1-.14.63,1.49,1.49,0,0,1-.42.52,2.09,2.09,0,0,1-.66.35,2.79,2.79,0,0,1-.87.13,3,3,0,0,1-2.12-.79l.45-.79a.2.2,0,0,1,0,.11.46.46,0,0,0,.08.17,1,1,0,0,0,.24.23,2.88,2.88,0,0,0,.54.29,1.38,1.38,0,0,0,.38.11,2.56,2.56,0,0,0,.42,0,1.88,1.88,0,0,0,.45-.06,1.56,1.56,0,0,0,.41-.16,1,1,0,0,0,.29-.25.56.56,0,0,0,.11-.34.59.59,0,0,0-.27-.49,3.34,3.34,0,0,0-1-.41l-.64-.2a3.27,3.27,0,0,1-.58-.27,1.63,1.63,0,0,1-.32-.28,1.34,1.34,0,0,1-.23-.37,1.11,1.11,0,0,1-.09-.45,1,1,0,0,1,.14-.51,1.45,1.45,0,0,1,.4-.43,2.23,2.23,0,0,1,.62-.3,2.54,2.54,0,0,1,.78-.12A2.4,2.4,0,0,1,421.2,170.58Z"/><path class="cls-4" d="M430.74,168.08v6.86H430V169l-1.39.41-.18-.43,1.79-.93Z"/><path class="cls-4" d="M437.2,169a3.39,3.39,0,0,1,.51,1.12,5.81,5.81,0,0,1,.19,1.55,5.32,5.32,0,0,1-.19,1.51,3.53,3.53,0,0,1-.51,1.07,2.11,2.11,0,0,1-.71.64,1.71,1.71,0,0,1-.8.21,1.5,1.5,0,0,1-.81-.25,2.43,2.43,0,0,1-.7-.71,3.82,3.82,0,0,1-.49-1.1,5.24,5.24,0,0,1-.18-1.43,5.3,5.3,0,0,1,.18-1.43,4,4,0,0,1,.49-1.12,2.47,2.47,0,0,1,.7-.73,1.48,1.48,0,0,1,.81-.26A1.85,1.85,0,0,1,437.2,169Zm-.41.65a1.93,1.93,0,0,0-.51-.66.94.94,0,0,0-.58-.22.92.92,0,0,0-.54.2,1.83,1.83,0,0,0-.48.55,3.18,3.18,0,0,0-.33.85,4.51,4.51,0,0,0-.13,1.11,5.31,5.31,0,0,0,.15,1.29Zm.25.73-2.42,3.07a2.14,2.14,0,0,0,.56.71,1,1,0,0,0,.58.22,1,1,0,0,0,.56-.18,1.54,1.54,0,0,0,.45-.52,3.13,3.13,0,0,0,.31-.83,4.79,4.79,0,0,0,.12-1.1c0-.25,0-.5,0-.72A4.44,4.44,0,0,0,437,170.33Z"/><path class="cls-4" d="M438.76,169.4a1.58,1.58,0,0,1,.1-.56,1.5,1.5,0,0,1,.26-.46,1.21,1.21,0,0,1,.39-.3,1.09,1.09,0,0,1,1,0,1.18,1.18,0,0,1,.39.31,1.61,1.61,0,0,1,.36,1,1.5,1.5,0,0,1-.35,1,1.12,1.12,0,0,1-.88.4,1.09,1.09,0,0,1-.48-.11,1.23,1.23,0,0,1-.39-.3,1.5,1.5,0,0,1-.26-.46A1.61,1.61,0,0,1,438.76,169.4Zm4-1.31h.74l-3.83,6.85H439Zm-2.22,1.31a1,1,0,0,0-.18-.67.52.52,0,0,0-.39-.19.5.5,0,0,0-.37.19,1,1,0,0,0-.17.67,1,1,0,0,0,.18.66.52.52,0,0,0,.39.2.49.49,0,0,0,.38-.19A1,1,0,0,0,440.53,169.4Zm2,2.8a1.07,1.07,0,0,1,.48.11,1.16,1.16,0,0,1,.39.31,1.53,1.53,0,0,1,.26.46,1.64,1.64,0,0,1,.09.56,1.6,1.6,0,0,1-.1.56,1.46,1.46,0,0,1-.26.45,1.3,1.3,0,0,1-.39.3,1.05,1.05,0,0,1-.47.11,1.09,1.09,0,0,1-.48-.11,1.27,1.27,0,0,1-.39-.3,1.42,1.42,0,0,1-.26-.45,1.63,1.63,0,0,1,0-1.12,1.48,1.48,0,0,1,.26-.46,1.2,1.2,0,0,1,.39-.3A1.07,1.07,0,0,1,442.53,172.2Zm.38.78a.53.53,0,0,0-.39-.21.51.51,0,0,0-.39.2,1.29,1.29,0,0,0,0,1.31.54.54,0,0,0,.4.2.49.49,0,0,0,.38-.21,1.29,1.29,0,0,0,0-1.29Z"/><rect class="cls-6" width="600" height="210"/></g></g></svg>