<?xml version="1.0" encoding="utf-8"?>
<!-- Generator: Adobe Illustrator 16.0.0, SVG Export Plug-In . SVG Version: 6.00 Build 0)  -->
<!DOCTYPE svg PUBLIC "-//W3C//DTD SVG 1.1//EN" "http://www.w3.org/Graphics/SVG/1.1/DTD/svg11.dtd">
<svg version="1.1" id="Layer_1" xmlns="http://www.w3.org/2000/svg" xmlns:xlink="http://www.w3.org/1999/xlink" x="0px" y="0px"
	 width="40px" height="40px" viewBox="0 0 40 40" enable-background="new 0 0 40 40" xml:space="preserve">
<g transform="translate(0,-952.36218)">
	<g>
		<path fill="#E8E8E8" d="M20,953.229c-5.67,0-10.266,4.594-10.266,10.266v5.6H8.801c-1.535,0-2.801,1.266-2.801,2.801v16.801
			c0,1.535,1.266,2.799,2.801,2.799h22.4c1.535,0,2.799-1.264,2.799-2.799v-16.801c0-1.535-1.264-2.801-2.799-2.801h-0.934v-5.6
			C30.268,957.823,25.672,953.229,20,953.229L20,953.229z M20,955.095c4.672,0,8.4,3.73,8.4,8.4v5.6H11.602v-5.6
			C11.602,958.825,15.332,955.095,20,955.095z M8.801,970.962h22.4c0.533,0,0.934,0.4,0.934,0.934v16.801
			c0,0.533-0.4,0.934-0.934,0.934h-22.4c-0.533,0-0.934-0.4-0.934-0.934v-16.801C7.867,971.362,8.268,970.962,8.801,970.962
			L8.801,970.962z"/>
	</g>
</g>
</svg>
