<?xml version="1.0" encoding="utf-8"?>
<!-- Generator: Adobe Illustrator 16.0.0, SVG Export Plug-In . SVG Version: 6.00 Build 0)  -->
<!DOCTYPE svg PUBLIC "-//W3C//DTD SVG 1.1//EN" "http://www.w3.org/Graphics/SVG/1.1/DTD/svg11.dtd">
<svg version="1.1" id="Layer_1" xmlns="http://www.w3.org/2000/svg" xmlns:xlink="http://www.w3.org/1999/xlink" x="0px" y="0px"
	 width="40px" height="40px" viewBox="0 0 40 40" enable-background="new 0 0 40 40" xml:space="preserve">
<g>
	<g>
		<g>
			<g>
				<path fill="#2ED8A3" d="M11.617,9.695C8.525,12.225,6.84,15.879,6.84,19.813c0,4.121,1.965,7.963,5.244,10.492l1.217-1.5
					c-2.902-2.154-4.496-5.432-4.496-8.992c0-3.371,1.406-6.557,4.029-8.711L11.617,9.695L11.617,9.695z"/>
			</g>
		</g>
		<g>
			<g>
				<path fill="#2ED8A3" d="M28.572,9.695l-1.219,1.406c2.529,2.154,4.029,5.34,4.029,8.711c0,3.561-1.688,6.838-4.498,8.992
					l1.125,1.5c3.279-2.529,5.152-6.371,5.34-10.492C33.35,15.879,31.568,12.225,28.572,9.695L28.572,9.695z"/>
			</g>
		</g>
	</g>
	<g>
		<g>
			<path fill="#2ED8A3" d="M20.047,14.66c-2.811,0-5.059,2.248-5.059,5.059s2.248,5.059,5.059,5.059s5.059-2.248,5.059-5.059
				S22.857,14.66,20.047,14.66L20.047,14.66z M20.047,22.998c-1.779,0-3.186-1.406-3.186-3.186s1.406-3.186,3.186-3.186
				s3.186,1.406,3.186,3.186S21.826,22.998,20.047,22.998L20.047,22.998z"/>
		</g>
	</g>
	<g>
		<g>
			<g>
				<path fill="#2ED8A3" d="M7.213,4.355C2.623,8.197,0,13.816,0,19.719c0,6.277,2.811,12.084,7.869,15.926l1.123-1.5
					c-4.496-3.465-7.117-8.711-7.117-14.426c0-5.434,2.434-10.492,6.555-13.957L7.213,4.355L7.213,4.355z"/>
			</g>
		</g>
		<g>
			<g>
				<path fill="#2ED8A3" d="M32.787,4.355l-1.219,1.406c4.217,3.465,6.559,8.523,6.559,13.957c0,5.715-2.529,10.961-7.119,14.426
					l1.123,1.5C37.189,31.803,40,25.996,40,19.719C40,13.816,37.377,8.197,32.787,4.355L32.787,4.355z"/>
			</g>
		</g>
	</g>
</g>
</svg>
