<?xml version="1.0" encoding="utf-8"?>
<!-- Generator: Adobe Illustrator 16.0.0, SVG Export Plug-In . SVG Version: 6.00 Build 0)  -->
<!DOCTYPE svg PUBLIC "-//W3C//DTD SVG 1.1//EN" "http://www.w3.org/Graphics/SVG/1.1/DTD/svg11.dtd">
<svg version="1.1" id="Layer_1" xmlns="http://www.w3.org/2000/svg" xmlns:xlink="http://www.w3.org/1999/xlink" x="0px" y="0px"
	 width="20px" height="20px" viewBox="0 0 20 20" enable-background="new 0 0 20 20" xml:space="preserve">
<g>
	<g>
		<path fill="#FFFFFF" d="M15.261,3.893c-0.355,0-0.646,0.289-0.646,0.646V16.24c0,0.355,0.29,0.645,0.646,0.645
			c0.356,0,0.646-0.289,0.646-0.645V4.561C15.906,4.182,15.617,3.893,15.261,3.893z"/>
		<path fill="#FFFFFF" d="M11.612,12.836c-0.355,0-0.644,0.289-0.644,0.646v2.78c0,0.356,0.289,0.646,0.644,0.646
			c0.356,0,0.646-0.289,0.646-0.646v-2.78C12.258,13.125,11.969,12.836,11.612,12.836z"/>
		<path fill="#FFFFFF" d="M7.964,7.274c-0.355,0-0.646,0.29-0.646,0.646v8.32c0,0.355,0.29,0.645,0.646,0.645
			c0.356,0,0.646-0.289,0.646-0.645V7.92C8.631,7.564,8.342,7.274,7.964,7.274z"/>
		<path fill="#FFFFFF" d="M4.338,10.834c-0.356,0-0.645,0.289-0.645,0.645v4.762c0,0.355,0.288,0.645,0.645,0.645
			c0.355,0,0.645-0.289,0.645-0.645v-4.762C4.983,11.123,4.694,10.834,4.338,10.834z"/>
		<path fill="#FFFFFF" d="M17.819,0H2.203C1.001,0,0,1.001,0,2.202v15.595C0,19.021,1.001,20,2.203,20h15.594
			c1.224,0,2.202-1.002,2.202-2.203V2.202C20.021,1.001,19.021,0,17.819,0z M18.731,17.819c0,0.512-0.4,0.912-0.912,0.912H2.203
			c-0.512,0-0.912-0.4-0.912-0.912V2.202c0-0.512,0.4-0.912,0.912-0.912h15.594c0.512,0,0.912,0.4,0.912,0.912v15.617H18.731z"/>
	</g>
</g>
</svg>
